<svg xmlns="http://www.w3.org/2000/svg" width="166" height="139.028" viewBox="0 0 166 139.028">
  <g id="health" transform="translate(-712.012 -242.477)">
    <g id="Group_335" data-name="Group 335" transform="translate(682.986 239.867)">
      <g id="Group_334" data-name="Group 334" transform="translate(0 0)">
        <g id="Group_325" data-name="Group 325" transform="translate(40.032 22.465)">
          <g id="Group_299" data-name="Group 299" transform="translate(0 15.828)">
            <g id="Group_262" data-name="Group 262" transform="translate(0 3.782)">
              <g id="Group_245" data-name="Group 245" transform="translate(0.132 59.737)">
                <g id="Group_243" data-name="Group 243" transform="translate(0 5.042)">
                  <rect id="Rectangle_59" data-name="Rectangle 59" width="24.834" height="2.309" transform="translate(2.275 23.008)" fill="#326894"/>
                  <g id="Group_240" data-name="Group 240" transform="translate(0 0.252)">
                    <path id="Path_388" data-name="Path 388" d="M195.656,358.972a1.54,1.54,0,0,1-.014.175l-.384,3.182-3.435,28.353a1.352,1.352,0,0,1-1.507,1.2,1.376,1.376,0,0,1-1.187-1.372,1.534,1.534,0,0,1,.014-.175l3.391-28.01.425-3.523a1.352,1.352,0,0,1,2.7.165Z" transform="translate(-189.13 -357.595)" fill="#4d8ab3"/>
                    <path id="Path_389" data-name="Path 389" d="M202.358,358.977a1.533,1.533,0,0,1-.014.175l-.384,3.182h-2.72l.425-3.523a1.35,1.35,0,0,1,2.693.165Z" transform="translate(-195.832 -357.599)" fill="#326894"/>
                  </g>
                  <g id="Group_241" data-name="Group 241" transform="translate(13.679 0)">
                    <path id="Path_390" data-name="Path 390" d="M232.428,358.235V390.01a1.365,1.365,0,0,1-1.348,1.387,1.327,1.327,0,0,1-.953-.408,1.4,1.4,0,0,1-.394-.982V358.232a1.367,1.367,0,0,1,1.348-1.387,1.316,1.316,0,0,1,.953.408A1.416,1.416,0,0,1,232.428,358.235Z" transform="translate(-229.724 -356.845)" fill="#4d8ab3"/>
                    <path id="Path_391" data-name="Path 391" d="M232.016,357.271a1.389,1.389,0,0,1,.394.982v3.591h-2.7v-3.592a1.367,1.367,0,0,1,1.348-1.387A1.3,1.3,0,0,1,232.016,357.271Z" transform="translate(-229.709 -356.859)" fill="#326894"/>
                  </g>
                  <g id="Group_242" data-name="Group 242" transform="translate(23.43 0.245)">
                    <path id="Path_392" data-name="Path 392" d="M265.159,390.493a1.35,1.35,0,0,1-2.691.172l-3.435-28.353-.384-3.182a1.533,1.533,0,0,1-.014-.175,1.378,1.378,0,0,1,1.187-1.372,1.358,1.358,0,0,1,1.507,1.2l.425,3.523,3.391,28.01a1.075,1.075,0,0,1,.015.176Z" transform="translate(-258.635 -357.573)" fill="#4d8ab3"/>
                    <path id="Path_393" data-name="Path 393" d="M261.767,362.312h-2.72l-.384-3.182a1.539,1.539,0,0,1-.014-.175,1.378,1.378,0,0,1,1.187-1.372,1.358,1.358,0,0,1,1.507,1.2Z" transform="translate(-258.644 -357.573)" fill="#326894"/>
                  </g>
                </g>
                <g id="Group_244" data-name="Group 244" transform="translate(1.217 0)">
                  <path id="Path_394" data-name="Path 394" d="M223.936,344.738v.9a2.847,2.847,0,0,1-2.849,2.849h-25.5a2.847,2.847,0,0,1-2.848-2.849v-.9a2.847,2.847,0,0,1,2.848-2.848h25.5a2.845,2.845,0,0,1,2.848,2.848Z" transform="translate(-192.741 -341.89)" fill="#994403"/>
                  <path id="Path_395" data-name="Path 395" d="M228.562,344.738v.9a2.847,2.847,0,0,1-2.848,2.849H202.568a2.847,2.847,0,0,1-2.848-2.849v-.9a2.847,2.847,0,0,1,2.848-2.848h23.145a2.845,2.845,0,0,1,2.848,2.848Z" transform="translate(-197.367 -341.89)" fill="#852e03"/>
                </g>
              </g>
              <path id="Path_396" data-name="Path 396" d="M194.656,175.658c-.32.654-.644,1.311-.93,1.942a14.161,14.161,0,0,0,0,3.421,9.731,9.731,0,0,1-.192,3.409,3.816,3.816,0,0,1-2.164,2.562c-.715.273-1.567.293-2.12.812a2.389,2.389,0,0,0-.354,2.4,3.724,3.724,0,0,0,1.038,1.84,1.888,1.888,0,0,0,2.009.441,1.453,1.453,0,0,1,1.791.425c.426.519.624,1.19,1.042,1.716a3.378,3.378,0,0,0,2.562,1.16,5.158,5.158,0,0,0,2.663-.52c1.392-.873,3.128-1.453,4.554-.634a16.561,16.561,0,0,0,2.157,1.429,2.651,2.651,0,0,0,2.147-.131c.651-.344.9-1.079,1.308-1.642.748-1.031,2.562-.2,3.816-.539a2.752,2.752,0,0,0,1.931-3.159c-.313-1.318-1.773-1.787-3.074-1.982-.893-.135-1.261-1.271-1.466-2.12a9.433,9.433,0,0,1-.132-2.616c.077-1.783.89-5.943.376-6.5a8.632,8.632,0,0,0-1.648-1.2q-2.538-1.158-5.077-2.319a11.214,11.214,0,0,0-4.858-1.375A5.928,5.928,0,0,0,194.656,175.658Z" transform="translate(-188.74 -169.846)" fill="#732d02"/>
              <g id="Group_247" data-name="Group 247" transform="translate(3.383 17.525)">
                <path id="Path_397" data-name="Path 397" d="M207.174,229.549s-7.512,1.187-8.306,3.846,3.766,21.271,3.766,21.271l16.875-1.031s1.227-21.453-1.456-22.8S207.174,229.549,207.174,229.549Z" transform="translate(-198.774 -225.207)" fill="#ebf5ff"/>
                <g id="Group_246" data-name="Group 246" transform="translate(5.53 0)">
                  <path id="Path_398" data-name="Path 398" d="M224.6,221.748s-1.1,3.732-3.085,4.547-6.334-4.16-6.334-4.16c.877-.556,1.207-1.894,1.315-3.115a13.573,13.573,0,0,0-.014-2.353l6.034,1.16a3.808,3.808,0,0,0,.971,3.364A2.2,2.2,0,0,0,224.6,221.748Z" transform="translate(-215.18 -216.667)" fill="#fbbd9a"/>
                  <path id="Path_399" data-name="Path 399" d="M226.044,221.2a10.1,10.1,0,0,1-6.992-2.171,13.573,13.573,0,0,0-.014-2.353l6.034,1.16A3.8,3.8,0,0,0,226.044,221.2Z" transform="translate(-217.737 -216.676)" fill="#f0997f"/>
                </g>
              </g>
              <g id="Group_252" data-name="Group 252" transform="translate(3.702 44.05)">
                <g id="Group_249" data-name="Group 249" transform="translate(12.836 3.495)">
                  <g id="Group_248" data-name="Group 248" transform="translate(6.192 33.52)">
                    <path id="Path_400" data-name="Path 400" d="M268.113,416.677c-.651,1.082-11.943-5.879-11.943-7.079,0-.782,1.474-1.915,2.5-2.6.549-.371.968-.617.968-.617l2.636-1.21,1.187.637a65.677,65.677,0,0,1,4.207,8.246C268.157,415.326,268.356,416.277,268.113,416.677Z" transform="translate(-256.17 -405.165)" fill="#d43226"/>
                    <path id="Path_401" data-name="Path 401" d="M272.587,414.039c-3.236.135-7.514-5.1-9-7.056.549-.371.968-.617.968-.617l2.636-1.21,1.187.637A65.25,65.25,0,0,1,272.587,414.039Z" transform="translate(-261.089 -405.156)" fill="#f0997f"/>
                  </g>
                  <path id="Path_402" data-name="Path 402" d="M244.316,305.72s20.556,2.6,21.254,7.864-12.894,28.481-12.894,28.481l-4.888-1.274,6.378-20.759L237.8,313.089l3.26-7.369Z" transform="translate(-237.8 -305.72)" fill="#002a42"/>
                </g>
                <g id="Group_250" data-name="Group 250" transform="translate(14.032 37.616)">
                  <path id="Path_403" data-name="Path 403" d="M253.293,418.46c-.651,1.082-11.943-5.879-11.943-7.079,0-.782,1.473-1.915,2.5-2.6.549-.371.968-.617.968-.617l2.636-1.21,1.187.637a65.682,65.682,0,0,1,4.207,8.246C253.337,417.107,253.536,418.059,253.293,418.46Z" transform="translate(-241.35 -406.948)" fill="#eb4a2a"/>
                  <path id="Path_404" data-name="Path 404" d="M257.767,415.823c-3.236.135-7.514-5.1-9-7.055.549-.371.968-.617.968-.617l2.636-1.21,1.187.637A65.029,65.029,0,0,1,257.767,415.823Z" transform="translate(-246.269 -406.94)" fill="#fbbd9a"/>
                </g>
                <path id="Path_405" data-name="Path 405" d="M201.739,297.085s-7.123,14.084,5.41,15.6c9.105,1.106,15.14.883,15.328,1.389.31.812-5.923,20.479-5.923,20.479l6.138,1.942s12.706-27.288,12.012-29.665c-.568-1.955-18.1-4.937-18.1-4.937,1.476-.7,2.562-3.253,2.4-6.543Z" transform="translate(-199.723 -295.353)" fill="#06384f"/>
                <g id="Group_251" data-name="Group 251" transform="translate(1.906 0.511)">
                  <path id="Path_406" data-name="Path 406" d="M207.462,296.87s-4.086,8.99-.816,12.638c3.853,4.3,20.7,2.913,21.878,4.433.94,1.217-6.509,21.1-6.509,21.1" transform="translate(-205.378 -296.87)" fill="none" stroke="#27788f" stroke-linecap="round" stroke-width="1"/>
                  <line id="Line_9" data-name="Line 9" x2="5.94" y2="1.81" transform="translate(15.42 37.867)" fill="none" stroke="#27788f" stroke-linecap="round" stroke-width="1"/>
                </g>
              </g>
              <g id="Group_256" data-name="Group 256" transform="translate(3.996 0)">
                <path id="Path_407" data-name="Path 407" d="M246.929,197.409c1.449-.164,2.72.561,2.84,1.618s-.957,2.049-2.406,2.213-2.72-.561-2.84-1.618S245.481,197.573,246.929,197.409Z" transform="translate(-229.709 -186.361)" fill="#f0997f"/>
                <g id="Group_253" data-name="Group 253" transform="translate(2.881 1.911)">
                  <path id="Path_408" data-name="Path 408" d="M209.14,179.4c0-5,3.176-9.051,7.44-9.051S224.3,174.4,224.3,179.4s-2.181,9.3-6.2,9.456C214.062,189.012,209.14,184.4,209.14,179.4Z" transform="translate(-209.14 -170.35)" fill="#fbbd9a"/>
                  <path id="Path_409" data-name="Path 409" d="M210.37,182.317a9,9,0,0,0,4.7-4.949,7.654,7.654,0,0,0,4.369,2.265,23.2,23.2,0,0,0,4.9.206,2.966,2.966,0,0,1,.991,1.709,10.064,10.064,0,0,0-.462-4.426Q218.5,175.181,212.21,173C211.583,175.99,210.956,178.981,210.37,182.317Z" transform="translate(-209.955 -172.107)" fill="#f0997f"/>
                </g>
                <g id="Group_254" data-name="Group 254" transform="translate(0.897)">
                  <path id="Path_410" data-name="Path 410" d="M220.615,169.563a7.66,7.66,0,0,0,4.536,3.462,21,21,0,0,0,5.807.745,13.1,13.1,0,0,1,.376,3.469,12.06,12.06,0,0,0,1.1-4.231c.017-.378.017-.762.007-1.166a6.66,6.66,0,0,0-2.764-5.488,8.649,8.649,0,0,0-5.336-1.672c-1.9,0-3.115.431-3.839,1.185a2.907,2.907,0,0,0-.593.91C219.594,167.5,219.941,168.3,220.615,169.563Z" transform="translate(-214.215 -164.678)" fill="#8c4206"/>
                  <path id="Path_411" data-name="Path 411" d="M203.3,180.317c-.064-2.444-.219-6.627.765-8.626a4.547,4.547,0,0,1,3.307-2.592,3.074,3.074,0,0,1,3.378,2.12,17.016,17.016,0,0,1-4.626,8.66A4.661,4.661,0,0,1,203.3,180.317Z" transform="translate(-203.254 -167.591)" fill="#8c4206"/>
                  <path id="Path_412" data-name="Path 412" d="M221.88,165.88a9.68,9.68,0,0,1,8.232,1.658,10.62,10.62,0,0,1,3.7,5.485c.017-.378.017-.762.007-1.166a6.66,6.66,0,0,0-2.764-5.488,8.65,8.65,0,0,0-5.336-1.672C223.815,164.7,222.6,165.127,221.88,165.88Z" transform="translate(-215.601 -164.689)" fill="#a66317"/>
                </g>
                <path id="Path_413" data-name="Path 413" d="M200.639,200.052c.264-1.032,1.623-1.575,3.035-1.213s2.343,1.491,2.08,2.523-1.623,1.575-3.035,1.213S200.374,201.083,200.639,200.052Z" transform="translate(-200.594 -187.249)" fill="#fbbd9a"/>
                <g id="Group_255" data-name="Group 255" transform="translate(8.17 10.212)">
                  <path id="Path_414" data-name="Path 414" d="M231.271,202.7c.222,0,.4.287.4.641s-.18.641-.4.641-.4-.287-.4-.641S231.05,202.7,231.271,202.7Z" transform="translate(-228.834 -200.096)" fill="#2f344d"/>
                  <path id="Path_415" data-name="Path 415" d="M247.821,202.71c.222,0,.4.287.4.641s-.18.641-.4.641-.4-.287-.4-.641S247.6,202.71,247.821,202.71Z" transform="translate(-239.805 -200.102)" fill="#2f344d"/>
                  <path id="Path_416" data-name="Path 416" d="M245.13,195.479a2.8,2.8,0,0,1,2.343.283" transform="translate(-238.287 -195.217)" fill="none" stroke="#8c4206" stroke-linecap="round" stroke-width="1"/>
                  <path id="Path_417" data-name="Path 417" d="M227.611,195.164a2.666,2.666,0,0,0-2.781.479" transform="translate(-224.83 -194.974)" fill="none" stroke="#8c4206" stroke-linecap="round" stroke-width="1"/>
                  <path id="Path_418" data-name="Path 418" d="M240.188,203.45a3.527,3.527,0,0,1-.173,2.06" transform="translate(-234.896 -200.593)" fill="none" stroke="#d45e4e" stroke-linecap="round" stroke-width="1"/>
                  <path id="Path_419" data-name="Path 419" d="M233.319,213.325a3.4,3.4,0,0,1-2.939-1.075" transform="translate(-228.509 -206.426)" fill="none" stroke="#d45e4e" stroke-linecap="round" stroke-width="1"/>
                </g>
              </g>
              <g id="Group_259" data-name="Group 259" transform="translate(17.313 22.06)">
                <g id="Group_258" data-name="Group 258" transform="translate(2.684 0.381)">
                  <path id="Path_420" data-name="Path 420" d="M248.61,234.907l3.01-1.817s2.538.216,4.258,3.374c1.709,3.142,4.928,13.3,5.943,13.747s13.383.607,13.383.607l.168,3.624s-15.149,2.4-16.956,1.409-7.656-12.709-7.656-12.709Z" transform="translate(-248.425 -232.47)" fill="#fbbd9a"/>
                  <path id="Path_421" data-name="Path 421" d="M248.06,233.279l.58-2.029s3.323.142,5.023,1.474,3.091,4.952,3.091,4.952l-4.322,6.978Z" transform="translate(-248.06 -231.25)" fill="#de3b26"/>
                  <path id="Path_422" data-name="Path 422" d="M263.27,268.871a72.716,72.716,0,0,0,5.357-5.009c.354-.5,2.865,5.34,2.441,6.054-.678,1.14-4.908,3.877-5.143,3.718S263.27,268.871,263.27,268.871Z" transform="translate(-258.143 -252.848)" fill="#163649"/>
                  <path id="Path_423" data-name="Path 423" d="M259.184,254.038l4.193-6.661a1.059,1.059,0,0,1,.28-.33.728.728,0,0,1,.994.445,2.067,2.067,0,0,1-.067,1.234.885.885,0,0,1,.907.816,2.243,2.243,0,0,1-.35,1.294,12.082,12.082,0,0,1-6.027,5.478A3.284,3.284,0,0,1,259.184,254.038Z" transform="translate(-255.274 -241.666)" fill="#b82621"/>
                  <g id="Group_257" data-name="Group 257" transform="translate(24.868 15.082)">
                    <path id="Path_424" data-name="Path 424" d="M321.83,279.823c1.734-1.217,5.084-3.631,5.336-3.745a9.138,9.138,0,0,1,3.442.189,3.814,3.814,0,0,1,2.543,2.191c.111.307.142.715-.128.893a.576.576,0,0,1-.6-.03,2.254,2.254,0,0,1-.462-.435,3.357,3.357,0,0,0-2.629-1.19,3.312,3.312,0,0,1,2.791,2.511c.084.28.118.634-.108.816a.564.564,0,0,1-.641-.02,2.2,2.2,0,0,1-.469-.5,4.914,4.914,0,0,0-2.029-1.52,3.6,3.6,0,0,1,2.1,2.737.979.979,0,0,1-.03.523.4.4,0,0,1-.411.263.615.615,0,0,1-.324-.233,8.558,8.558,0,0,0-1.871-1.884,5.485,5.485,0,0,1,1.19,2.96c-.047.125-.357.34-.7,0-.394-.394-.671-1.069-1.284-1.82a4.522,4.522,0,0,1-4.271,1.369C322.777,281.856,322.292,280.814,321.83,279.823Z" transform="translate(-321.83 -275.99)" fill="#fbbd9a"/>
                    <path id="Path_425" data-name="Path 425" d="M331.16,280.45a35.394,35.394,0,0,1,3.759-1.122,1.494,1.494,0,0,1,.516-.061.529.529,0,0,1,.421.266.512.512,0,0,1-.077.506,1.358,1.358,0,0,1-.411.344,17.327,17.327,0,0,1-1.7.9,2.486,2.486,0,0,1-1.645,2" transform="translate(-328.015 -278.161)" fill="#fbbd9a" stroke="#d45e4e" stroke-linecap="round" stroke-width="1"/>
                  </g>
                </g>
                <path id="Path_426" data-name="Path 426" d="M240.106,230.175c.722.627,1.19,4.16,1.56,6.4.556,3.364,3.388,17.991,3.556,19.026.3,1.827,6.085,1.7,6.317.748.044-.175-1.689-.982-1.965-2.147-.246-1.045-2.167-21.409-3.095-22.481C245.257,230.309,239.873,229.972,240.106,230.175Z" transform="translate(-240.099 -230.121)" fill="#eb4a2a"/>
              </g>
              <g id="Group_261" data-name="Group 261" transform="translate(1.345 22.113)">
                <path id="Path_427" data-name="Path 427" d="M202.458,230.278c.6.216,2.5,4.241,3.4,7.925,1.881,7.7.762,19.124,0,20.634s-8.144,2.174-9.4,1.773c-.728-.233-1.52-23.27-1.018-26.162C195.776,232.519,202.276,230.214,202.458,230.278Z" transform="translate(-194.421 -230.276)" fill="#eb4a2a"/>
                <path id="Path_428" data-name="Path 428" d="M248.671,303.287a40.684,40.684,0,0,1,6.688-1.692,2.328,2.328,0,0,1,1.672.816,3.565,3.565,0,0,1,.5,1.18l.578,2.022a1.785,1.785,0,0,1,.1.725.549.549,0,0,1-.431.5c-.324.027-.526-.361-.644-.688-.3-.839-.607-1.679-.907-2.5.2,1.035.394,2.073.593,3.108a1.783,1.783,0,0,1,.037.742.552.552,0,0,1-.479.465c-.344-.006-.509-.448-.587-.812a22.384,22.384,0,0,0-.613-2.424,6.917,6.917,0,0,1,.148,3.556,1.048,1.048,0,0,1-.216.5.34.34,0,0,1-.465.054.6.6,0,0,1-.131-.384l-.313-3.138a8.853,8.853,0,0,1-.111,3.294,1.077,1.077,0,0,1-.266.506.388.388,0,0,1-.5.047.7.7,0,0,1-.162-.52c-.024-.657-.047-1.315-.051-2.083a3.716,3.716,0,0,1-2.228,1.261,5.7,5.7,0,0,1-2.566-.329C248.384,306.264,248.455,305.037,248.671,303.287Z" transform="translate(-229.574 -277.552)" fill="#fbbd9a"/>
                <path id="Path_429" data-name="Path 429" d="M200.3,240.689c-.472-2.181-2.427-5.717-4.022-4.986-.914.421-3.546,1.3-3.546,7.069,0,7.8,1.025,18.042,3.546,19.758,1.281.873,15.291,1.729,15.291,1.729l1.025-5.019s-10.325-1.915-10.8-3.33C201.12,253.911,201.552,246.491,200.3,240.689Z" transform="translate(-192.73 -233.809)" fill="#eb4a2a"/>
                <g id="Group_260" data-name="Group 260" transform="translate(1.554 5.685)">
                  <path id="Path_430" data-name="Path 430" d="M211.56,247.14c1.734,5.859,2.1,15.827,2.353,16.427.233.546,1.551.775,2.586,1.129" transform="translate(-206.767 -247.14)" fill="none" stroke="#b82621" stroke-linecap="round" stroke-width="1"/>
                  <path id="Path_431" data-name="Path 431" d="M204.113,307.729c-1.921-.192-4.308-.566-4.841-.964-.627-.469-1.392-2.761-1.931-4.325" transform="translate(-197.341 -283.798)" fill="none" stroke="#b82621" stroke-linecap="round" stroke-width="1"/>
                  <path id="Path_432" data-name="Path 432" d="M216.6,267.922a7.054,7.054,0,0,0,1.031-4.052" transform="translate(-210.108 -258.23)" fill="none" stroke="#b82621" stroke-linecap="round" stroke-width="1"/>
                </g>
              </g>
            </g>
            <g id="Group_298" data-name="Group 298" transform="translate(31.93 0)">
              <g id="Group_295" data-name="Group 295" transform="translate(13.169)">
                <g id="Group_268" data-name="Group 268" transform="translate(13.178 63.519)">
                  <g id="Group_266" data-name="Group 266" transform="translate(0 5.046)">
                    <rect id="Rectangle_60" data-name="Rectangle 60" width="24.834" height="2.248" transform="translate(2.272 22.404)" fill="#326894"/>
                    <g id="Group_263" data-name="Group 263" transform="translate(0 0.234)">
                      <path id="Path_433" data-name="Path 433" d="M368.146,358.9a1.5,1.5,0,0,1-.014.173l-.384,3.1-3.435,27.61a1.352,1.352,0,0,1-2.693-.162,1.475,1.475,0,0,1,.014-.172l3.39-27.281.425-3.432a1.354,1.354,0,0,1,2.7.165Z" transform="translate(-361.62 -357.555)" fill="#4d8ab3"/>
                      <path id="Path_434" data-name="Path 434" d="M374.848,358.916a1.478,1.478,0,0,1-.014.173l-.384,3.1h-2.72l.425-3.432a1.352,1.352,0,0,1,2.693.162Z" transform="translate(-368.322 -357.569)" fill="#326894"/>
                    </g>
                    <g id="Group_264" data-name="Group 264" transform="translate(13.679 0)">
                      <path id="Path_435" data-name="Path 435" d="M404.907,358.208v30.946a1.348,1.348,0,1,1-2.7,0V358.208a1.348,1.348,0,1,1,2.7,0Z" transform="translate(-402.207 -356.86)" fill="#4d8ab3"/>
                      <path id="Path_436" data-name="Path 436" d="M404.506,357.256a1.338,1.338,0,0,1,.394.953v3.5h-2.7v-3.5a1.352,1.352,0,0,1,2.306-.953Z" transform="translate(-402.2 -356.862)" fill="#326894"/>
                    </g>
                    <g id="Group_265" data-name="Group 265" transform="translate(23.431 0.233)">
                      <path id="Path_437" data-name="Path 437" d="M437.652,389.622a1.35,1.35,0,0,1-2.69.168l-3.435-27.612-.384-3.1a1.459,1.459,0,0,1-.014-.173,1.352,1.352,0,0,1,2.693-.162l.425,3.432,3.391,27.282A.876.876,0,0,1,437.652,389.622Z" transform="translate(-431.129 -357.558)" fill="#4d8ab3"/>
                      <path id="Path_438" data-name="Path 438" d="M434.257,362.168h-2.721l-.384-3.1a1.484,1.484,0,0,1-.014-.173,1.352,1.352,0,0,1,2.693-.162Z" transform="translate(-431.135 -357.55)" fill="#326894"/>
                    </g>
                  </g>
                  <g id="Group_267" data-name="Group 267" transform="translate(1.217 0)">
                    <path id="Path_439" data-name="Path 439" d="M396.425,344.738v.9a2.847,2.847,0,0,1-2.848,2.849h-25.5a2.847,2.847,0,0,1-2.848-2.849v-.9a2.847,2.847,0,0,1,2.848-2.848h25.5a2.845,2.845,0,0,1,2.848,2.848Z" transform="translate(-365.23 -341.89)" fill="#994403"/>
                    <path id="Path_440" data-name="Path 440" d="M401.056,344.738v.9a2.847,2.847,0,0,1-2.848,2.849H375.065a2.847,2.847,0,0,1-2.849-2.849v-.9a2.847,2.847,0,0,1,2.849-2.848h23.143a2.845,2.845,0,0,1,2.848,2.848Z" transform="translate(-369.861 -341.89)" fill="#852e03"/>
                  </g>
                </g>
                <g id="Group_272" data-name="Group 272" transform="translate(5.722 19.758)">
                  <path id="Path_441" data-name="Path 441" d="M345.973,217.965c.512-.839.014-1.931.175-2.9a1.146,1.146,0,0,1,.371-.715.586.586,0,0,1,.751,0c.239.233.158.624.155.957a8.169,8.169,0,0,0,.4,1.743c.3,1.423-.452,2.592-1.173,3.819a7.024,7.024,0,0,1-2.889,1.143c-.479.047-2.929-1.3-3.887-4.21-.482-1.456-.425-2.06-.263-2.259a.523.523,0,0,1,.684-.138.773.773,0,0,1,.233.391c.307.873.61,1.746.91,2.653a5.614,5.614,0,0,1-1.749-4.365c.017-.31.111-.684.408-.775a.558.558,0,0,1,.543.168,1.7,1.7,0,0,1,.313.506c.425.92.853,1.837,1.45,2.929a4.249,4.249,0,0,1-1.16-4.1c.064-.243.209-.526.462-.529s.408.28.5.522q.647,1.734,1.294,3.472a4.916,4.916,0,0,1-.728-3.277c.054-.411.263-.907.681-.925a.688.688,0,0,1,.58.354,2.3,2.3,0,0,1,.233.671C344.594,214.422,345.181,215.676,345.973,217.965Z" transform="translate(-339.501 -212.074)" fill="#fdbd9b"/>
                  <path id="Path_442" data-name="Path 442" d="M340.62,221.966c.384-.1.654.03.8.587.209.786.765,2.606,1.338,3.01" transform="translate(-340.243 -218.61)" fill="none" stroke="#b0514a" stroke-linecap="round" stroke-width="0.5"/>
                  <path id="Path_443" data-name="Path 443" d="M353.255,236.02l1.413,3.294-3.735,2.262-1.662-4.4Z" transform="translate(-345.978 -227.948)" fill="#fdbd9b"/>
                  <g id="Group_271" data-name="Group 271" transform="translate(1.35 1.313)">
                    <g id="Group_269" data-name="Group 269" transform="translate(0 0.03)">
                      <path id="Path_444" data-name="Path 444" d="M349.28,218.912a3.237,3.237,0,0,0-2.7-2.747l-.02-.1s-.677.121-.9.173a3.334,3.334,0,0,0,1.149,6.446c.229-.03.907-.152.907-.152l-.02-.1A3.226,3.226,0,0,0,349.28,218.912Z" transform="translate(-343.508 -216.06)" fill="#316382"/>
                    </g>
                    <path id="Path_445" data-name="Path 445" d="M347.792,216.011a3.313,3.313,0,1,1-2.277,3.745A3.111,3.111,0,0,1,347.792,216.011Z" transform="translate(-344.8 -215.971)" fill="#407c91"/>
                    <g id="Group_270" data-name="Group 270" transform="translate(1.322 0.758)">
                      <path id="Path_446" data-name="Path 446" d="M351.87,220.347a2.4,2.4,0,0,0-2.643-2.1.434.434,0,0,0-.064.014,2.555,2.555,0,0,0,.89,4.972.424.424,0,0,0,.064-.01A2.393,2.393,0,0,0,351.87,220.347Z" transform="translate(-347.429 -218.219)" fill="#ebf5ff"/>
                    </g>
                  </g>
                  <path id="Path_447" data-name="Path 447" d="M363.18,229.969l-2.3-1.749a6.138,6.138,0,0,0-2.3,2.626,56.283,56.283,0,0,0-1.858,7.706l-4.293-7.133L346.96,235.3s6.067,15.358,9.722,15.544,6.226-3.2,6.226-3.2Z" transform="translate(-344.446 -222.777)" fill="#fff"/>
                </g>
                <g id="Group_278" data-name="Group 278" transform="translate(0 49.246)">
                  <g id="Group_274" data-name="Group 274" transform="translate(0 43.726)">
                    <path id="Path_448" data-name="Path 448" d="M341.32,429.611l.7,4.4,2.879,1.17L348.2,433.6l-.6-4.334Z" transform="translate(-334.985 -429.265)" fill="#fbbd9a"/>
                    <g id="Group_273" data-name="Group 273" transform="translate(0 3.942)">
                      <path id="Path_449" data-name="Path 449" d="M337.606,447.158l-14.923-.216a3.8,3.8,0,0,1-.142-.758,2.686,2.686,0,0,1,.925-2.434c1.254-.974,3.246-1.109,4.541-1.611a2.884,2.884,0,0,0,1.244-1.065l2.124.121s.175,1.185.964,1.112a19.409,19.409,0,0,0,3.395-1.348,13.126,13.126,0,0,1,1.851,5.225A5.357,5.357,0,0,1,337.606,447.158Z" transform="translate(-322.527 -440.959)" fill="#502202"/>
                      <path id="Path_450" data-name="Path 450" d="M337.635,457.434l-14.923-.216a3.794,3.794,0,0,1-.142-.758h15.038a5.215,5.215,0,0,1,.027.974Z" transform="translate(-322.556 -451.235)" fill="#855321"/>
                    </g>
                  </g>
                  <g id="Group_277" data-name="Group 277" transform="translate(3.833 0)">
                    <g id="Group_276" data-name="Group 276" transform="translate(14.012 43.726)">
                      <path id="Path_451" data-name="Path 451" d="M394.26,429.611l.7,4.4,2.879,1.17,3.307-1.581-.6-4.334Z" transform="translate(-387.925 -429.265)" fill="#fbbd9a"/>
                      <g id="Group_275" data-name="Group 275" transform="translate(0 3.942)">
                        <path id="Path_452" data-name="Path 452" d="M390.546,447.158l-14.923-.216a3.794,3.794,0,0,1-.142-.758,2.686,2.686,0,0,1,.925-2.434c1.254-.974,3.246-1.109,4.541-1.611a2.887,2.887,0,0,0,1.244-1.065l2.124.121s.175,1.185.964,1.112a19.41,19.41,0,0,0,3.395-1.348,13.126,13.126,0,0,1,1.851,5.225A5.357,5.357,0,0,1,390.546,447.158Z" transform="translate(-375.467 -440.959)" fill="#502202"/>
                        <path id="Path_453" data-name="Path 453" d="M390.575,457.434l-14.923-.216a3.8,3.8,0,0,1-.142-.758h15.038A5.22,5.22,0,0,1,390.575,457.434Z" transform="translate(-375.495 -451.234)" fill="#855321"/>
                      </g>
                    </g>
                    <path id="Path_454" data-name="Path 454" d="M353.37,301.29l-2.444,3.961s-13.993,2.131-16.258,5.559c-2.09,3.162.742,35.213.742,35.213h9.611s-.735-23.674,0-25.866,22.769-2.067,24.035-5.04,1.686-13.406,1.686-13.406" transform="translate(-333.899 -300.704)" fill="#112c45"/>
                    <path id="Path_455" data-name="Path 455" d="M398.549,304.707s.543,8.579-2.276,10.632c-2.447,1.783-8.67,2.248-8.67,2.248l1.2,26.685-9.189.6s-4.565-31.146-4.349-34.131,9.055-5.147,8.451-5.572c0,0-6.813-2.311-4.288-4.854.058-.058.121-.118.186-.175.586-.52,7.763.017,7.763.017l6.616-.607,2.619,2.97Z" transform="translate(-361.316 -299.55)" fill="#163a4a"/>
                  </g>
                </g>
                <path id="Path_456" data-name="Path 456" d="M406.344,307.418c-.058.421-.121.873-.189,1.332a18.619,18.619,0,0,0-4.578-4.433c-3.348-1.84-14.047-3.1-14.047-3.1l.04-.914c.058-.058.121-.118.186-.175.586-.52,7.763.017,7.763.017l6.616-.607,2.619,2.97Z" transform="translate(-365.618 -250.297)" fill="#112c45"/>
                <g id="Group_287" data-name="Group 287" transform="translate(20.106)">
                  <g id="Group_279" data-name="Group 279" transform="translate(5.42 17.256)">
                    <path id="Path_457" data-name="Path 457" d="M409.017,210.046s-3.941,5.09-6.395,4.831-4.372-2.976-4.372-2.976a2.727,2.727,0,0,0,1.409-1.972,8.914,8.914,0,0,0-.118-4.193l7.295-1.082a10.1,10.1,0,0,0,.273,2.528A4.19,4.19,0,0,0,409.017,210.046Z" transform="translate(-398.25 -204.653)" fill="#fdbd9b"/>
                    <path id="Path_458" data-name="Path 458" d="M402.2,209.936a8.913,8.913,0,0,0-.118-4.193l7.295-1.082a10.1,10.1,0,0,0,.273,2.528A12.387,12.387,0,0,1,402.2,209.936Z" transform="translate(-400.789 -204.658)" fill="#f0997f"/>
                  </g>
                  <g id="Group_281" data-name="Group 281" transform="translate(0 12.493)">
                    <path id="Path_459" data-name="Path 459" d="M382.18,192.052c.112-.986,1.3-1.661,2.648-1.508s2.354,1.077,2.242,2.063-1.3,1.661-2.647,1.508S382.069,193.038,382.18,192.052Z" transform="translate(-382.171 -190.522)" fill="#f0997f"/>
                    <g id="Group_280" data-name="Group 280" transform="translate(1.28 1.179)">
                      <path id="Path_460" data-name="Path 460" d="M387.47,194.633v-.027a.587.587,0,0,0-.587-.587h-.327a.587.587,0,0,0-.587.587v.027a.587.587,0,0,0,.587.587h.327A.587.587,0,0,0,387.47,194.633Z" transform="translate(-385.97 -194.02)" fill="#4b8394"/>
                      <rect id="Rectangle_61" data-name="Rectangle 61" width="0.492" height="1.348" transform="translate(0 0.6)" fill="#4b8394"/>
                    </g>
                  </g>
                  <g id="Group_282" data-name="Group 282" transform="translate(1.928 3.035)">
                    <path id="Path_461" data-name="Path 461" d="M402.73,170.9c0-4.659-3.223-8.437-7.2-8.437s-7.2,2.488-7.2,8.437c0,4.659,1.807,8.7,6.088,8.984C398.385,180.144,402.73,175.563,402.73,170.9Z" transform="translate(-388.182 -162.464)" fill="#fdbd9b"/>
                    <path id="Path_462" data-name="Path 462" d="M401.591,176.315a10.127,10.127,0,0,1-2.774-4.689,2.2,2.2,0,0,1-1.931-.293,5.357,5.357,0,0,1-4.524-.26,3.769,3.769,0,0,1-3.354-.1,7.154,7.154,0,0,0-1.116,2.289q.151-2.407.31-4.817,5.7-.8,11.447-1.119a1.251,1.251,0,0,1,.641.077,1.237,1.237,0,0,1,.506.8A18.294,18.294,0,0,1,401.591,176.315Z" transform="translate(-387.892 -165.674)" fill="#f0997f"/>
                  </g>
                  <g id="Group_283" data-name="Group 283" transform="translate(1.351)">
                    <path id="Path_463" data-name="Path 463" d="M402.295,158.758c-.158,2.393-.314,5.481-.472,7.844-.222.812-.92.782-1.868,1.085a23.438,23.438,0,0,1-1.746-6.391,4.641,4.641,0,0,1-2.859-.189,6.1,6.1,0,0,1-4.453-.01,5.139,5.139,0,0,1-3.31.061,20.548,20.548,0,0,0-.678,4.218c-.135-1.15-.58-4.706-.691-7.143a8.257,8.257,0,0,1,.084-2.242,1.375,1.375,0,0,1,2.306-.441,2.193,2.193,0,0,1,1.486-1.241,2.412,2.412,0,0,1,1.969.469,2.514,2.514,0,0,1,2.113-1.3,2.093,2.093,0,0,1,2.026,1.294,4.412,4.412,0,0,1,1.271-.512,1.853,1.853,0,0,1,1.329.206,1.432,1.432,0,0,1,.465.5,2.044,2.044,0,0,1,.26.758,1.344,1.344,0,0,1,1.682-.313,2.19,2.19,0,0,1,1.031,1.49,6.369,6.369,0,0,1,.052,1.859Z" transform="translate(-386.188 -153.473)" fill="#502202"/>
                    <path id="Path_464" data-name="Path 464" d="M399.259,154.95a2.485,2.485,0,0,0-1.531-.148,2.285,2.285,0,0,0-1.537,1.18,2.1,2.1,0,0,0-2.012-1.329,2.451,2.451,0,0,0-2.05,1.689,2.225,2.225,0,0,0-1.921-.758,2.118,2.118,0,0,0-1.686,1.254.958.958,0,0,0-1.049-.212,1.855,1.855,0,0,0-.843.742,4.1,4.1,0,0,0-.424.849,8.233,8.233,0,0,1,.084-2.242,1.375,1.375,0,0,1,2.306-.441,2.193,2.193,0,0,1,1.487-1.241,2.411,2.411,0,0,1,1.969.469,2.514,2.514,0,0,1,2.113-1.3,2.093,2.093,0,0,1,2.026,1.294,4.413,4.413,0,0,1,1.271-.512,1.853,1.853,0,0,1,1.329.206A1.451,1.451,0,0,1,399.259,154.95Z" transform="translate(-386.18 -153.46)" fill="#6b4019"/>
                  </g>
                  <g id="Group_284" data-name="Group 284" transform="translate(3.166 11.053)">
                    <path id="Path_465" data-name="Path 465" d="M393.4,186.311a2.342,2.342,0,0,0-1.83.334" transform="translate(-391.565 -186.25)" fill="none" stroke="#502202" stroke-linecap="round" stroke-width="1"/>
                    <path id="Path_466" data-name="Path 466" d="M411.1,186.447a2.218,2.218,0,0,1,2.1.206" transform="translate(-404.515 -186.265)" fill="none" stroke="#502202" stroke-linecap="round" stroke-width="1"/>
                    <path id="Path_467" data-name="Path 467" d="M402.54,194.43a14.051,14.051,0,0,0,.2,1.989" transform="translate(-398.84 -191.673)" fill="none" stroke="#b0514a" stroke-linecap="round" stroke-width="1"/>
                    <path id="Path_468" data-name="Path 468" d="M405.33,204.213a3.139,3.139,0,0,0,2.222-.823" transform="translate(-400.69 -197.612)" fill="none" stroke="#b0514a" stroke-linecap="round" stroke-width="1"/>
                    <path id="Path_469" data-name="Path 469" d="M411.278,193.983c.2-.036.407.151.453.416a.443.443,0,0,1-.283.546c-.2.036-.407-.151-.453-.417A.443.443,0,0,1,411.278,193.983Z" transform="translate(-404.431 -191.373)" fill="#2d3a5e"/>
                    <path id="Path_470" data-name="Path 470" d="M394.537,194.212c.2-.036.406.151.453.416a.444.444,0,0,1-.283.546c-.2.036-.407-.151-.453-.417A.442.442,0,0,1,394.537,194.212Z" transform="translate(-393.333 -191.525)" fill="#2d3a5e"/>
                  </g>
                  <g id="Group_286" data-name="Group 286" transform="translate(13.652 12.482)">
                    <path id="Path_471" data-name="Path 471" d="M424.874,190.522c1.346-.186,2.548.461,2.683,1.445s-.846,1.931-2.192,2.116-2.547-.461-2.683-1.445S423.527,190.707,424.874,190.522Z" transform="translate(-422.67 -190.49)" fill="#fdbd9b"/>
                    <g id="Group_285" data-name="Group 285" transform="translate(2.127 1.19)">
                      <path id="Path_472" data-name="Path 472" d="M428.98,194.633v-.027a.587.587,0,0,1,.587-.587h.327a.587.587,0,0,1,.586.587v.027a.587.587,0,0,1-.586.587h-.327A.587.587,0,0,1,428.98,194.633Z" transform="translate(-428.98 -194.02)" fill="#4b8394"/>
                      <rect id="Rectangle_62" data-name="Rectangle 62" width="0.492" height="1.348" transform="translate(1.008 0.6)" fill="#4b8394"/>
                    </g>
                  </g>
                </g>
                <g id="Group_288" data-name="Group 288" transform="translate(22.139 21.473)">
                  <path id="Path_473" data-name="Path 473" d="M401.46,217.34s-3.995,2.414-4.689,3.28a5.224,5.224,0,0,0-.907,2.056,18.526,18.526,0,0,0-1.173-2.188c-.216-.168-1.891-1.756-1.891-1.756l-1.965,1.49-2.633,1.369.111,25.289,17.805,1.207.459-27.443Z" transform="translate(-388.203 -217.279)" fill="#69c5c9"/>
                  <path id="Path_474" data-name="Path 474" d="M407.416,233.61c-.843,7.092.62,19.488-1.756,24.3" transform="translate(-399.775 -228.065)" fill="none" stroke="#3e7c8a" stroke-linecap="round" stroke-width="0.5"/>
                  <path id="Path_475" data-name="Path 475" d="M411.89,221.505a3.688,3.688,0,0,1,.991-1.672c.691-.553,4.254-2.65,4.349-2.673s1.844,1.2,1.844,1.2l-2.643,3.752s-2.71-1.9-3.344-1.743C412.48,220.523,411.89,221.505,411.89,221.505Z" transform="translate(-403.905 -217.16)" fill="#9bebe7"/>
                  <path id="Path_476" data-name="Path 476" d="M400.681,223.709a3.946,3.946,0,0,0-.566-1.234,15.012,15.012,0,0,0-1.942-2,5.056,5.056,0,0,0-1.793,1.358,12.142,12.142,0,0,0-.108,2.916s2.367-2.252,3.29-2A2.527,2.527,0,0,1,400.681,223.709Z" transform="translate(-393.526 -219.361)" fill="#9bebe7"/>
                </g>
                <g id="Group_289" data-name="Group 289" transform="translate(32.936 21.827)">
                  <path id="Path_477" data-name="Path 477" d="M424.689,219.41s-3.091,2.906-3.557,5.855-.286,18.47,2.576,23.634c2.481,4.48,2.716,18.749,2.716,25.374l8.684-2.994a107.861,107.861,0,0,0-2.842-22.886c-2.174-8.529-.087-24.113-1.332-25.636C430.07,221.692,424.689,219.41,424.689,219.41Z" transform="translate(-420.699 -219.006)" fill="#fff"/>
                  <path id="Path_478" data-name="Path 478" d="M420.558,235.177s-.718-8.2-.024-10.838,2.7-5.994,3.246-6.112c.9-.192,2.9,1.362,2.9,1.362a19.8,19.8,0,0,0-2.1,7.076c-.044.384-3.229,1.56-3.229,1.56a20.893,20.893,0,0,1,2.454,2C423.767,230.41,420.558,235.177,420.558,235.177Z" transform="translate(-420.232 -218.211)" fill="#dae8f7"/>
                </g>
                <g id="Group_292" data-name="Group 292" transform="translate(24.188 23.632)">
                  <g id="Group_290" data-name="Group 290" transform="translate(0 25.884)">
                    <path id="Path_479" data-name="Path 479" d="M397.654,303.75c1.864,0,3.374.94,3.374,2.1s-1.511,2.1-3.374,2.1-3.374-.94-3.374-2.1S395.791,303.75,397.654,303.75Z" transform="translate(-394.28 -302.604)" fill="#407c91"/>
                    <path id="Path_480" data-name="Path 480" d="M405.109,300.844l-3.438-.455a1.656,1.656,0,0,0-.917.054,1.237,1.237,0,0,0-.6,1.086c.573.051,1.146.1,1.726.192a11.308,11.308,0,0,1-2.528,2.511,2.779,2.779,0,0,0-.6.516.818.818,0,0,0-.173.745.78.78,0,0,0,.6.469,6.633,6.633,0,0,0,.836.024.913.913,0,0,0,.441.995,1.1,1.1,0,0,0,1.146-.148,1.218,1.218,0,0,0,.887.623,2.718,2.718,0,0,0,1.089-.173,1.439,1.439,0,0,0,1.1.491,1.82,1.82,0,0,0,1.153-.5,8.865,8.865,0,0,0,2.3-3.226,24.608,24.608,0,0,1-3.006-3.2Z" transform="translate(-397.109 -300.348)" fill="#fbbd9a"/>
                  </g>
                  <g id="Group_291" data-name="Group 291" transform="translate(6.472 0)">
                    <path id="Path_481" data-name="Path 481" d="M420.562,228.637c-.084-1.628.742-4.692,1.915-5.013,1.827-.5,4.932,2.248,5.748,4.433s3.28,15.571,2.589,17.393c-.947,2.488-13.457,9.179-13.457,9.179l-3.877-5.665s8.673-4.706,9.189-6.2C422.99,241.825,420.761,232.457,420.562,228.637Z" transform="translate(-413.48 -223.566)" fill="#fff"/>
                    <path id="Path_482" data-name="Path 482" d="M433.02,230.29a8.906,8.906,0,0,0-1.4,5.127c0,3.3.809,11.1.62,11.391s-6.3,4.251-6.3,4.251" transform="translate(-421.74 -228.023)" fill="none" stroke="#b8c8e3" stroke-linecap="round" stroke-width="1"/>
                    <path id="Path_483" data-name="Path 483" d="M439.453,252.952a8.57,8.57,0,0,1-1.847-3.711" transform="translate(-429.473 -240.585)" fill="none" stroke="#b8c8e3" stroke-linecap="round" stroke-width="1"/>
                    <path id="Path_484" data-name="Path 484" d="M433.24,303.57a52.269,52.269,0,0,0,6.587-4.15" transform="translate(-426.579 -273.85)" fill="none" stroke="#b8c8e3" stroke-linecap="round" stroke-width="1"/>
                  </g>
                </g>
                <g id="Group_294" data-name="Group 294" transform="translate(14.952 22.589)">
                  <path id="Path_485" data-name="Path 485" d="M378.166,221.12a24.231,24.231,0,0,0-.526,5.539c0,5.9-.769,22.3-3.873,24.726-2.441,1.9-5.5,1.783-6.887,1.783,0,0,2.889-1.537,3.968-3.32,1.2-1.982,1.4-8.283,1.56-11.566.168-3.479.482-13.066.88-13.9C374.151,222.576,378.166,221.12,378.166,221.12Z" transform="translate(-366.88 -220.901)" fill="#fff"/>
                  <path id="Path_486" data-name="Path 486" d="M390.481,237.177a93.454,93.454,0,0,0,.7-9.412,34.541,34.541,0,0,1,.711-7.3,11.344,11.344,0,0,0-2.724,1.176,18.942,18.942,0,0,0-2.191,7c-.108.715,2.791,1.3,2.791,1.3s-2.235,1.736-2.235,2.171C387.542,232.97,390.481,237.177,390.481,237.177Z" transform="translate(-380.203 -220.47)" fill="#dae8f7"/>
                  <g id="Group_293" data-name="Group 293" transform="translate(4.939 5.195)">
                    <path id="Path_487" data-name="Path 487" d="M383,235.88a140.715,140.715,0,0,1-1.264,19.542" transform="translate(-381.669 -235.88)" fill="none" stroke="#b8c8e3" stroke-linecap="round" stroke-width="1"/>
                    <path id="Path_488" data-name="Path 488" d="M381.53,245.88a7.935,7.935,0,0,0,1.19,3.088" transform="translate(-381.53 -242.509)" fill="none" stroke="#b8c8e3" stroke-linecap="round" stroke-width="1"/>
                  </g>
                </g>
              </g>
              <g id="Group_297" data-name="Group 297" transform="translate(0 15.584)">
                <path id="Path_489" data-name="Path 489" d="M386.67,199.707s.462,10.851,6.968,11.266c5.491.35,8.539-6.4,8.539-11.283" transform="translate(-351.878 -199.69)" fill="none" stroke="#163649" stroke-width="1"/>
                <g id="Group_296" data-name="Group 296" transform="translate(0 11.418)">
                  <path id="Path_490" data-name="Path 490" d="M325.97,233.56s-4,14.623-15.1,17.266c-13.585,3.236-26.9-.4-26.9-.4" transform="translate(-283.799 -233.56)" fill="none" stroke="#163649" stroke-linecap="round" stroke-width="1"/>
                  <path id="Path_491" data-name="Path 491" d="M308.029,234.79s1.534,8.866-5.34,13.457c-6.088,4.069-18.719,2.812-18.719,2.812" transform="translate(-283.798 -234.375)" fill="none" stroke="#163649" stroke-linecap="round" stroke-width="1"/>
                  <path id="Path_492" data-name="Path 492" d="M321.047,292.435s-24.9.051-37.587-8.841" transform="translate(-283.46 -266.728)" fill="none" stroke="#163649" stroke-linecap="round" stroke-width="1"/>
                </g>
              </g>
            </g>
          </g>
          <g id="Group_324" data-name="Group 324" transform="translate(93.215 0)">
            <path id="Path_493" data-name="Path 493" d="M549.57,112.613a5.778,5.778,0,0,1,11.006-2.778c.964,2.063.634,4.48.169,6.712s-1.038,4.542-.509,6.756c.448,1.864,1.652,3.509,1.891,5.41a5.683,5.683,0,0,1-4.065,6c-1.443.376-3.307-.087-3.766-1.507-.425-1.315.546-2.714.351-4.079a6,6,0,0,0-1.868-2.859C549.947,123.077,549.907,118.482,549.57,112.613Z" transform="translate(-521.142 -106.497)" fill="#381b07"/>
            <g id="Group_301" data-name="Group 301" transform="translate(0 26.139)">
              <path id="Path_494" data-name="Path 494" d="M471.689,200.543a10.629,10.629,0,0,1-2.235-5.019,8.8,8.8,0,0,1,.2-3.125,7.835,7.835,0,0,1,.78-1.429c.334-.522.664-1.045,1-1.567a1.054,1.054,0,0,1,.543-.512c.415-.111.8.357.775.789a1.668,1.668,0,0,1-.8,1.173,4.65,4.65,0,0,1,1.136-2.107.627.627,0,0,1,.549-.263c.34.081.33.566.239.9-.229.846-.455,1.692-.637,2.42a9.869,9.869,0,0,1,.671,4.557,6.621,6.621,0,0,0,1.19,4.4C474.121,201.19,472.96,199.471,471.689,200.543Z" transform="translate(-468.015 -186.988)" fill="#db8e62"/>
              <path id="Path_495" data-name="Path 495" d="M475.72,216.022s3.421,11.691,6.007,11.93c3.128.294,5.67-2.6,5.67-2.6l2.043-10.47-4.632-2.774-2.555,8.39-3.647-4.123Z" transform="translate(-472.194 -202.65)" fill="#db8e62"/>
              <path id="Path_496" data-name="Path 496" d="M506.382,198.03c-2.549-.964-5.107-1.907-7.652-2.885.693-3.327,1.658-7.315,2.5-8.589a5.656,5.656,0,0,1,4.126-2.5l1.163,3.442-.138,10.467Z" transform="translate(-487.447 -184.05)" fill="#1d9fb3"/>
              <g id="Group_300" data-name="Group 300" transform="translate(0 1.493)">
                <path id="Path_497" data-name="Path 497" d="M481.845,207.738,474.4,188.48l-9.135,2.369,8.455,21.444Z" transform="translate(-465.26 -188.48)" fill="#b23f37"/>
                <path id="Path_498" data-name="Path 498" d="M482.931,208.762l-6.712-17.142-7.45,2.019,7.339,18.756Z" transform="translate(-467.586 -190.561)" fill="#ebf5ff"/>
                <path id="Path_499" data-name="Path 499" d="M477.909,190.24l.465,1.244-2.923.812-.523-1.271Z" transform="translate(-471.669 -189.647)" fill="#678ca8"/>
              </g>
            </g>
            <g id="Group_304" data-name="Group 304" transform="translate(12.183 52.477)">
              <g id="Group_303" data-name="Group 303" transform="translate(0 50.869)">
                <g id="Group_302" data-name="Group 302" transform="translate(0 6.034)">
                  <path id="Path_500" data-name="Path 500" d="M501.4,438.1c.027,1.264,13.285.836,13.882-.206.388-.681-.327-2.393-.873-3.5-.289-.6-.533-1.018-.533-1.018l-1.686-2.36-1.345-.037a64.984,64.984,0,0,0-7.75,5.063C502.037,436.913,501.39,437.634,501.4,438.1Z" transform="translate(-501.4 -430.98)" fill="#136d94"/>
                  <path id="Path_501" data-name="Path 501" d="M506.43,436.053c2.741,1.726,9.055-.688,11.313-1.648-.289-.6-.532-1.018-.532-1.018l-1.686-2.36-1.345-.037A64.707,64.707,0,0,0,506.43,436.053Z" transform="translate(-504.734 -430.987)" fill="#db8e62"/>
                </g>
                <path id="Path_502" data-name="Path 502" d="M518.5,413.917l.468,5.168.168,1.854.118,1.274,5.363-.563.044-.9v0l.044-.944.3-6.108.029-.614-3.266.418Z" transform="translate(-512.735 -413.081)" fill="#db8e62"/>
                <path id="Path_503" data-name="Path 503" d="M518.5,414.74l.468,5.168,2.683.334h0l2.262.287.789.1.3-6.107-3.236-.2Z" transform="translate(-512.735 -413.904)" fill="#cf6e4a"/>
              </g>
              <path id="Path_504" data-name="Path 504" d="M503.5,262.18a43.319,43.319,0,0,0-1.851,15.446c.454,9.068,4.278,40.691,4.278,40.691l9.526-.448-1.632-40.823-2.3-12.641" transform="translate(-501.524 -262.18)" fill="#1d9fb3"/>
            </g>
            <g id="Group_307" data-name="Group 307" transform="translate(12.792 50.423)">
              <g id="Group_306" data-name="Group 306" transform="translate(19.624 47.96)">
                <g id="Group_305" data-name="Group 305" transform="translate(3.373 5.603)">
                  <path id="Path_505" data-name="Path 505" d="M571.657,427.375c.839.944,10.652-7.982,10.433-9.159-.144-.769-1.8-1.608-2.936-2.1-.607-.263-1.065-.428-1.065-.428l-2.815-.7-1.048.843a64.81,64.81,0,0,0-2.612,8.879C571.367,426.054,571.347,427.025,571.657,427.375Z" transform="translate(-571.426 -414.987)" fill="#136d94"/>
                  <path id="Path_506" data-name="Path 506" d="M571.98,424.7c3.207-.465,6.445-6.4,7.541-8.593-.607-.263-1.065-.428-1.065-.428l-2.815-.7-1.048.843A64.536,64.536,0,0,0,571.98,424.7Z" transform="translate(-571.793 -414.98)" fill="#db8e62"/>
                </g>
                <path id="Path_507" data-name="Path 507" d="M561.42,403.234l2.228,2.181,2.808,2.747.917.893,3.719-3.9-.553-.718-1.608-2.083-3.082-3.991Z" transform="translate(-561.42 -398.36)" fill="#db8e62"/>
                <path id="Path_508" data-name="Path 508" d="M561.42,403.234l2.228,2.181,5.282-3.064-3.082-3.991Z" transform="translate(-561.42 -398.36)" fill="#cf6e4a"/>
              </g>
              <path id="Path_509" data-name="Path 509" d="M503.306,264.134c.927,2.575,7.908,7.113,7.908,7.113s-.067,17.977.192,22.507,9.648,19.323,9.648,19.323l8.8-7.81s-6.819-11.4-7.288-14.084,2.481-16.774,2.481-22.511a22.152,22.152,0,0,0-.26-3.239,40.406,40.406,0,0,0-1.567-6.469c-.563-1.736-1.038-2.875-1.038-2.875a86.741,86.741,0,0,0-9.553,2.029c-4.369,1.221-8.721,2.983-9.385,5.232A1.268,1.268,0,0,0,503.306,264.134Z" transform="translate(-503.206 -256.087)" fill="#25b2c2"/>
              <path id="Path_510" data-name="Path 510" d="M503.308,268.13a56.685,56.685,0,0,0,7.244,3.614,10.9,10.9,0,0,1,.526-1.244c.219.475.442.944.711,1.589,4.3-1.079,8.643-1.994,13-2.66a40.411,40.411,0,0,0-1.567-6.469q-5.289-.5-10.592-.846c-4.369,1.22-8.721,2.983-9.385,5.232A1.243,1.243,0,0,0,503.308,268.13Z" transform="translate(-503.209 -260.083)" fill="#1d9fb3"/>
            </g>
            <path id="Path_511" data-name="Path 511" d="M524.75,183.676c-.334-2.022-7.989-4.623-10.592-4.386-5.589.509-9.638,1.524-10.912,2.323s-2.437,8.263-2.437,10.343c0,2.461.846,7.292.62,9.24a108.194,108.194,0,0,1-2.731,11.782l8.424,2.953,1.045-1.84.953,2.333,13.923-3.193s-1.065-11.087-1.065-13.032C521.982,198.333,525.182,186.285,524.75,183.676Z" transform="translate(-487.427 -154.746)" fill="#27b8c1"/>
            <g id="Group_309" data-name="Group 309" transform="translate(20.728 30.252)">
              <path id="Path_512" data-name="Path 512" d="M530.34,196.25a174.3,174.3,0,0,0-3.59,28.984" transform="translate(-526.75 -196.25)" fill="none" stroke="#51dbdb" stroke-linecap="round" stroke-width="1"/>
              <g id="Group_308" data-name="Group 308" transform="translate(0.947 2.417)">
                <path id="Path_513" data-name="Path 513" d="M537.579,203.42a.469.469,0,1,1-.469.469.469.469,0,0,1,.469-.469Z" transform="translate(-534.565 -203.42)" fill="#136d94"/>
                <path id="Path_514" data-name="Path 514" d="M534.1,222.33a.469.469,0,1,1-.468.469A.469.469,0,0,1,534.1,222.33Z" transform="translate(-532.258 -215.955)" fill="#136d94"/>
                <path id="Path_515" data-name="Path 515" d="M531.419,242.26a.469.469,0,1,1-.469.469A.469.469,0,0,1,531.419,242.26Z" transform="translate(-530.481 -229.167)" fill="#136d94"/>
                <path id="Path_516" data-name="Path 516" d="M530.029,265.11a.468.468,0,1,1-.332.137A.469.469,0,0,1,530.029,265.11Z" transform="translate(-529.56 -244.314)" fill="#136d94"/>
              </g>
            </g>
            <g id="Group_316" data-name="Group 316" transform="translate(8.07 26.825)">
              <g id="Group_315" data-name="Group 315" transform="translate(0 8.092)">
                <g id="Group_311" data-name="Group 311" transform="translate(0 0.064)">
                  <path id="Path_517" data-name="Path 517" d="M489.2,214.569l1.4.111.108.01,9.358-2.458a1.026,1.026,0,0,0,.6-1.294,1.059,1.059,0,0,0-1.352-.593l-8.928,3.155-.091.081Z" transform="translate(-489.2 -210.278)" fill="#136d94"/>
                  <g id="Group_310" data-name="Group 310" transform="translate(0 3.304)">
                    <path id="Path_518" data-name="Path 518" d="M489.2,221.07l.384.03,1.011.081a.652.652,0,0,1-.091-.077.462.462,0,0,1-.138-.452c.02-.067.061-.138.034-.2a.323.323,0,0,0-.061-.074.335.335,0,0,1-.054-.293l-.8.728Z" transform="translate(-489.2 -220.082)" fill="#d68a5a"/>
                    <path id="Path_519" data-name="Path 519" d="M489.2,222.5l.384.03a.375.375,0,0,1-.084-.152.38.38,0,0,1-.014-.138Z" transform="translate(-489.2 -221.513)" fill="#24151a"/>
                  </g>
                </g>
                <g id="Group_313" data-name="Group 313" transform="translate(2.484)">
                  <path id="Path_520" data-name="Path 520" d="M505.143,216.525c-.921-1.7-1.837-3.411-2.818-5.121a9.28,9.28,0,0,0-2.383-1.315,6.632,6.632,0,0,0-2.707,1.723c-.189.2-.388.479-.3.745a.433.433,0,0,0,.455.277,1.3,1.3,0,0,0,.529-.212c.509-.3,1.018-.6,1.608-.883a4.316,4.316,0,0,1,.455.428,3.856,3.856,0,0,0-1.1.128,17.336,17.336,0,0,0-1.925,1.062.705.705,0,0,0-.388.482.448.448,0,0,0,.239.425.838.838,0,0,0,.472.067,3.114,3.114,0,0,0,1.652-.617,2.167,2.167,0,0,1,.539.209,2.742,2.742,0,0,0-.742.212,1.031,1.031,0,0,0-.485,1.463.39.39,0,0,0-.2.384,1.085,1.085,0,0,0,.142.435,8.69,8.69,0,0,0,.475.826,1.513,1.513,0,0,0,.614.6.607.607,0,0,0,.771-.292,3.441,3.441,0,0,0,3.256,1.77,10.456,10.456,0,0,0,1.84-2.792Z" transform="translate(-496.571 -210.09)" fill="#db8e62"/>
                  <g id="Group_312" data-name="Group 312" transform="translate(1.723 2.05)">
                    <path id="Path_521" data-name="Path 521" d="M508.038,216.393a3.682,3.682,0,0,0-1.048-.222" transform="translate(-505.199 -216.17)" fill="none" stroke="#a8473e" stroke-linecap="round" stroke-width="0.5"/>
                    <path id="Path_522" data-name="Path 522" d="M506.28,221.168a3.855,3.855,0,0,0-.92.027" transform="translate(-504.119 -219.473)" fill="none" stroke="#a8473e" stroke-linecap="round" stroke-width="0.5"/>
                    <path id="Path_523" data-name="Path 523" d="M501.68,225.433a3.336,3.336,0,0,1,1.777-.34" transform="translate(-501.68 -222.077)" fill="none" stroke="#a8473e" stroke-linecap="round" stroke-width="0.5"/>
                    <path id="Path_524" data-name="Path 524" d="M505.711,229.951a3.579,3.579,0,0,1-.376-1.011" transform="translate(-504.103 -224.635)" fill="none" stroke="#a8473e" stroke-linecap="round" stroke-width="0.5"/>
                    <path id="Path_525" data-name="Path 525" d="M504.467,230.57a3.042,3.042,0,0,1-.607.047" transform="translate(-503.125 -225.716)" fill="none" stroke="#a8473e" stroke-linecap="round" stroke-width="0.5"/>
                  </g>
                </g>
                <g id="Group_314" data-name="Group 314" transform="translate(8.65 1.328)">
                  <path id="Path_526" data-name="Path 526" d="M514.86,221.493s11.65,9.881,14.8,8.768c1.251-.445,2.491-4.072,3.391-7.45.829-3.1,1.369-5.994,1.369-5.994l-6.6-2.788s-.442,2.994-.887,5.427a11.539,11.539,0,0,1-.748,3.068c-.674.189-9.227-3.617-9.227-3.617Z" transform="translate(-514.86 -214.03)" fill="#db8e62"/>
                  <path id="Path_527" data-name="Path 527" d="M550.66,219.467a37.1,37.1,0,0,0,6.115,3.354c.829-3.1,1.369-5.994,1.369-5.994l-6.6-2.788S551.1,217.033,550.66,219.467Z" transform="translate(-538.592 -214.037)" fill="#cf6e4a"/>
                </g>
              </g>
              <path id="Path_528" data-name="Path 528" d="M557.242,201.809A49.088,49.088,0,0,1,549.3,199.8c.391-3.243,1.3-9.108,2.046-10.915.526-1.281,2.592-3.533,4.922-2.559s3.223,2.511,2.976,6.567C559.152,194.332,557.781,198.873,557.242,201.809Z" transform="translate(-529.04 -186.085)" fill="#32c9cf"/>
            </g>
            <g id="Group_323" data-name="Group 323" transform="translate(16.153 1.678)">
              <g id="Group_319" data-name="Group 319" transform="translate(5.582 17.329)">
                <g id="Group_317" data-name="Group 317" transform="translate(0.453 0)">
                  <path id="Path_529" data-name="Path 529" d="M531.08,169.906s.677,3.068,1.985,3.964,6.26-4.618,6.26-4.618c-.853-.8-1.058-2.356-1.048-3.738a16.02,16.02,0,0,1,.246-2.623l-6.034,1.743a12.094,12.094,0,0,1-.25,3.337C531.828,169.646,531.08,169.906,531.08,169.906Z" transform="translate(-531.08 -162.891)" fill="#db8e62"/>
                  <path id="Path_530" data-name="Path 530" d="M534.53,167.97c2.781.59,4.908-1.18,6.034-2.458a16.02,16.02,0,0,1,.246-2.623l-6.034,1.743A11.992,11.992,0,0,1,534.53,167.97Z" transform="translate(-533.367 -162.89)" fill="#cf6e4a"/>
                </g>
                <g id="Group_318" data-name="Group 318" transform="translate(0 4.632)">
                  <path id="Path_531" data-name="Path 531" d="M537.61,183.086a7.777,7.777,0,0,1,.506-2.262c.2-.179,4.952-4.345,5.235-4.189a5.609,5.609,0,0,1,1.1,1.544A17.441,17.441,0,0,1,541.627,181C540.361,182.027,538.338,183.21,537.61,183.086Z" transform="translate(-534.949 -176.63)" fill="#136d94"/>
                  <path id="Path_532" data-name="Path 532" d="M532.4,184.54a8.581,8.581,0,0,0-.229-2.346,7.969,7.969,0,0,1-1.062-3.354s-1.2.455-1.348.718a8.47,8.47,0,0,0,1.008,3.138C531.619,184.257,532.313,184.625,532.4,184.54Z" transform="translate(-529.737 -178.095)" fill="#136d94"/>
                </g>
              </g>
              <path id="Path_533" data-name="Path 533" d="M513.186,150.147c.114-1.006,1.324-1.7,2.7-1.539s2.4,1.1,2.289,2.1-1.324,1.7-2.7,1.539S513.072,151.153,513.186,150.147Z" transform="translate(-513.177 -136.079)" fill="#cf6e4a"/>
              <g id="Group_320" data-name="Group 320" transform="translate(2.113 2.857)">
                <path id="Path_534" data-name="Path 534" d="M534.134,128.566c0-4.753-3.287-8.606-7.342-8.606s-7.342,3.854-7.342,8.606,2.026,9.479,6.135,9.311C529.635,137.708,534.134,133.32,534.134,128.566Z" transform="translate(-519.449 -119.96)" fill="#db8e62"/>
                <path id="Path_535" data-name="Path 535" d="M532.5,131.156a8.039,8.039,0,0,1-1.524-3.421,4.016,4.016,0,0,1-2.3-2.073c-1.244,1.244-5.97,1.945-7.548,1.534-1.122,1.387-1.156,2.073-1.554,3.843a19.35,19.35,0,0,1,.334-6.489,69.546,69.546,0,0,0,8.653-3.445,1.658,1.658,0,0,1,1.51-.192,1.78,1.78,0,0,1,.6.812,10.315,10.315,0,0,0,2.649,3.368c.287.239.614.509.627.88a1.332,1.332,0,0,1-.236.678C533.185,127.623,533.275,129.966,532.5,131.156Z" transform="translate(-519.446 -120.51)" fill="#cf6e4a"/>
              </g>
              <g id="Group_321" data-name="Group 321" transform="translate(0.867 0)">
                <path id="Path_536" data-name="Path 536" d="M515.749,120.043c-.024,1.8,1.443,5.539,1.443,5.539a10.324,10.324,0,0,1,1.413-5.077c2.9,0,6.118-.135,7.9-1.787a3.941,3.941,0,0,0,2.471,2.427,13.321,13.321,0,0,0,1.185,4.531c.914-.556,1.6-.32,2.346-1.2a19.609,19.609,0,0,0,.758-5.626,7.755,7.755,0,0,0-1.119-3.536,5.492,5.492,0,0,0-.539-.711,4.391,4.391,0,0,0-4.177-1.446,4.8,4.8,0,0,0-3.388-1.658,6.736,6.736,0,0,0-3.668.968,8.681,8.681,0,0,0-4.43,5.815A9.257,9.257,0,0,0,515.749,120.043Z" transform="translate(-515.749 -111.493)" fill="#412408"/>
                <path id="Path_537" data-name="Path 537" d="M515.75,120.039a7.082,7.082,0,0,1,.219-.688,9.786,9.786,0,0,1,1.864-2.96,9.225,9.225,0,0,1,4.339-2.976,5.236,5.236,0,0,1,4.989,1.062,4.948,4.948,0,0,1,4.979.829,5.5,5.5,0,0,0-.539-.711,4.391,4.391,0,0,0-4.177-1.446,4.8,4.8,0,0,0-3.388-1.658,6.736,6.736,0,0,0-3.668.968,8.681,8.681,0,0,0-4.43,5.815A9.607,9.607,0,0,0,515.75,120.039Z" transform="translate(-515.75 -111.488)" fill="#664216"/>
              </g>
              <path id="Path_538" data-name="Path 538" d="M557.7,148.668c1.344-.344,2.636.173,2.888,1.154s-.636,2.056-1.978,2.4-2.636-.173-2.889-1.154S556.361,149.012,557.7,148.668Z" transform="translate(-541.354 -136.063)" fill="#db8e62"/>
              <g id="Group_322" data-name="Group 322" transform="translate(3.127 11.413)">
                <path id="Path_539" data-name="Path 539" d="M542.08,153.41c.177,0,.32.229.32.512s-.144.512-.32.512-.32-.229-.32-.512S541.9,153.41,542.08,153.41Z" transform="translate(-535.252 -150.69)" fill="#411f00"/>
                <path id="Path_540" data-name="Path 540" d="M524.63,153.41c.177,0,.32.229.32.512s-.144.512-.32.512-.32-.229-.32-.512S524.453,153.41,524.63,153.41Z" transform="translate(-523.685 -150.69)" fill="#411f00"/>
                <path id="Path_541" data-name="Path 541" d="M524.346,145.469a2.387,2.387,0,0,0-1.891.152" transform="translate(-522.455 -145.341)" fill="none" stroke="#412408" stroke-linecap="round" stroke-width="1"/>
                <path id="Path_542" data-name="Path 542" d="M541.23,146.162a2.26,2.26,0,0,1,2.144.209" transform="translate(-534.901 -145.768)" fill="none" stroke="#412408" stroke-linecap="round" stroke-width="1"/>
                <path id="Path_543" data-name="Path 543" d="M531.714,156.09a6.231,6.231,0,0,0,.007,1.439" transform="translate(-528.567 -152.467)" fill="none" stroke="#a8473e" stroke-linecap="round" stroke-width="1"/>
                <path id="Path_544" data-name="Path 544" d="M532.86,163.46a1.85,1.85,0,0,0,2.309-.57" transform="translate(-529.352 -156.974)" fill="none" stroke="#a8473e" stroke-linecap="round" stroke-width="1"/>
              </g>
            </g>
          </g>
        </g>
        <g id="Group_333" data-name="Group 333" transform="translate(39.511 2.61)">
          <g id="Group_327" data-name="Group 327" transform="translate(0 3.52)">
            <circle id="Ellipse_13" data-name="Ellipse 13" cx="12.368" cy="12.368" r="12.368" transform="translate(0 1.073) rotate(-2.485)" fill="#ffa8b1"/>
            <g id="Group_326" data-name="Group 326" transform="translate(3.919 6.866)">
              <path id="Path_545" data-name="Path 545" d="M200.814,80.288c2.707-5.043,8.061,1.726,8.061,1.726s5.363-5.785,8.061-2.026c2.8,3.9-8.061,12.985-8.061,12.985S198.511,84.58,200.814,80.288Z" transform="translate(-199.92 -78.421)" fill="#b82621"/>
              <path id="Path_546" data-name="Path 546" d="M198.82,88.246l3.752.04,1.166-4.565,2.4,8.677,1.9-10.511,2.066,9.466,1.234-6.863,1.322,3.6,4.1.111" transform="translate(-198.82 -80.719)" fill="none" stroke="#fff" stroke-linecap="round" stroke-width="1"/>
            </g>
          </g>
          <g id="Group_329" data-name="Group 329" transform="translate(34.487 23.047)">
            <circle id="Ellipse_14" data-name="Ellipse 14" cx="12.641" cy="12.641" r="12.641" transform="translate(0 0)" fill="#ffa8b1"/>
            <g id="Group_328" data-name="Group 328" transform="translate(3.964 6.032)">
              <path id="Path_547" data-name="Path 547" d="M316.683,141.043l-9.675,5.542a3.838,3.838,0,0,1-3.816-6.661l9.675-5.542a3.838,3.838,0,0,1,3.816,6.661Z" transform="translate(-301.261 -133.874)" fill="#fff"/>
              <path id="Path_548" data-name="Path 548" d="M329.987,141.042l-4.841,2.771-3.816-6.661,4.841-2.771a3.839,3.839,0,0,1,3.816,6.661Z" transform="translate(-314.565 -133.872)" fill="#b82621"/>
            </g>
          </g>
          <g id="Group_332" data-name="Group 332" transform="translate(66.91 0)">
            <path id="Path_549" data-name="Path 549" d="M398.048,47.61A12.368,12.368,0,1,1,385.68,59.978,12.368,12.368,0,0,1,398.048,47.61Z" transform="translate(-385.68 -47.61)" fill="#ffa8b1"/>
            <g id="Group_331" data-name="Group 331" transform="translate(6.061 4.369)">
              <path id="Path_550" data-name="Path 550" d="M416.27,62.363v8.478a6.138,6.138,0,0,1-2.8,5.141l-3.506,2.047-3.216-2.087a6.154,6.154,0,0,1-3.091-5.323V62.363l6.263-1.793.044.014Z" transform="translate(-403.659 -60.57)" fill="#fff"/>
              <path id="Path_551" data-name="Path 551" d="M428.674,62.39v8.478a6.138,6.138,0,0,1-2.8,5.141l-3.505,2.046V60.61Z" transform="translate(-416.063 -60.596)" fill="#f2e4e5"/>
              <g id="Group_330" data-name="Group 330" transform="translate(1.514 3.937)">
                <rect id="Rectangle_63" data-name="Rectangle 63" width="2.909" height="9.58" transform="translate(3.337)" fill="#b82621"/>
                <rect id="Rectangle_64" data-name="Rectangle 64" width="9.581" height="2.909" transform="translate(0 3.336)" fill="#b82621"/>
              </g>
            </g>
          </g>
        </g>
      </g>
    </g>
    <line id="Line_10" data-name="Line 10" x2="166" transform="translate(712.012 381.005)" fill="none" stroke="#707070" stroke-width="1"/>
  </g>
</svg>
