<svg xmlns="http://www.w3.org/2000/svg" width="183" height="141.378" viewBox="0 0 183 141.378">
  <g id="life" transform="translate(-290.054 -160.469)">
    <g id="Group_180" data-name="Group 180" transform="translate(346.97 160.469)">
      <g id="Group_177" data-name="Group 177" transform="translate(16.227 18.421)">
        <path id="Path_170" data-name="Path 170" d="M1589.4,428.644s5.177,2.449,6.354,2.14,5.645-1.1,6.273-.82c0,0,.712,1.135.175,1.882s-4.885,2.767-6.455,2.84-7.533-1.007-8.8-2Z" transform="translate(-1586.952 -428.644)" fill="#e8945b"/>
        <path id="Path_171" data-name="Path 171" d="M1718.111,437.926s2-.829,2.65.1a4.067,4.067,0,0,1,.943,2.338c-.081.474-1.43.683-1.969.315a13.1,13.1,0,0,0-1.874-.882Z" transform="translate(-1703.19 -436.583)" fill="#e8945b"/>
      </g>
      <path id="Path_172" data-name="Path 172" d="M1796.306,1465.3a8.427,8.427,0,0,0-1.126,3.852.829.829,0,0,0,.831.835h6.87a1.021,1.021,0,0,0,.992-1.27,8.464,8.464,0,0,0-2.377-4.313C1799.306,1462.561,1796.306,1465.3,1796.306,1465.3Z" transform="translate(-1755.615 -1329.329)" fill="#163560"/>
      <path id="Path_173" data-name="Path 173" d="M1583.619,1444.924s-.4,6.37-1.627,6.461c-.164.012-6.251.012-6.251.012h-7.851a2.683,2.683,0,0,1,2.4-2.312c2.272-.4,6.073-1.992,7.449-4.994C1579.188,1440.932,1583.619,1444.924,1583.619,1444.924Z" transform="translate(-1553.8 -1310.781)" fill="#163560"/>
      <g id="Group_178" data-name="Group 178" transform="translate(17.825 61.216)">
        <path id="Path_174" data-name="Path 174" d="M1616.508,844.053c-.274,3.539-.31,6.332.053,7.656,1.62,5.925-2.921,32.676-2.921,32.676-3.347,1.6-8.1-.017-8.1-.017.289-3.706-1.473-36.88-3.112-57.116-.686-8.5-1.2-14.441-1.2-14.441l20.053-2.335S1617.457,831.763,1616.508,844.053Z" transform="translate(-1601.224 -810.477)" fill="#2b478b"/>
        <path id="Path_175" data-name="Path 175" d="M1621.274,810.477s-3.82,21.286-4.77,33.576l-14.081-16.8c-.686-8.5-1.2-14.441-1.2-14.441Z" transform="translate(-1601.222 -810.477)" fill="#233862"/>
      </g>
      <path id="Path_176" data-name="Path 176" d="M1692.37,829.514s10.151,59.1,11.9,70.55a12.82,12.82,0,0,0,7.683-.583s.5-27.465-.827-35.738.708-33.85-1.434-36.229S1692.37,829.514,1692.37,829.514Z" transform="translate(-1664.33 -763.758)" fill="#2b478b"/>
      <path id="Path_177" data-name="Path 177" d="M1697.552,398.024s-.779,5.253-.438,6.822,5.56,2.422,7.742,1.126,1.526-1.778,1.526-1.778-.333-6.013-.639-6.442S1697.552,398.024,1697.552,398.024Z" transform="translate(-1668.464 -382.669)" fill="#ffb27d"/>
      <path id="Path_178" data-name="Path 178" d="M1512.7,476.829a56.23,56.23,0,0,0-.137-15.3c-1.906-10.964-7.879-11.329-7.879-11.259,0,1.476-3.174,2.838-5.734,2.67-2.158-.141-3.558-1.782-3.558-2.67,0-.007-.04-.007-.113,0a37.858,37.858,0,0,0-5.538.471c-1.755.3-3.435.8-4.224,1.623-.407.424-1.859,1.611-3.725,3.225-4.751,4.108-12.18,10.985-11.851,15.084,0,0,9.183,6.743,15,2.516-.317,10.973-2.309,22.6-1.82,22.588,0,0,3.244,2.809,13.1,2.809a62.387,62.387,0,0,0,11.989-1,18.3,18.3,0,0,0,5.15-1.585C1514.178,495.992,1512.459,479.106,1512.7,476.829Z" transform="translate(-1466.818 -429.42)" fill="#f99746"/>
      <path id="Path_179" data-name="Path 179" d="M1692.986,564.786a18.278,18.278,0,0,1-5.15,1.585c-5.092-2.255-15.2-8.084-15.593-17.871-.524-13.02,15.371-20.772,15.371-20.772s2.132,1.185,4.576,2.583a56.225,56.225,0,0,1,.137,15.3C1692.088,547.889,1693.8,564.774,1692.986,564.786Z" transform="translate(-1646.445 -498.202)" fill="#ed7d2b"/>
      <path id="Path_180" data-name="Path 180" d="M1700.97,406.565s2.024,2.853,4.164,2.879,4.325-2.834,4.325-2.834Z" transform="translate(-1671.964 -390.619)" fill="#e8945b"/>
      <path id="Path_181" data-name="Path 181" d="M1689.9,315.184a13.725,13.725,0,0,0,2.837,1.452,3.505,3.505,0,0,0,2.426.051,32.149,32.149,0,0,0,3.422-1.317c1.072-.65,1-1.965,1.058-3.793a28.555,28.555,0,0,0,.042-5.112c-.287-1.491-1.233-2.343-3.883-2.572-4.863-.422-6.889.8-6.974,2.426-.022.438-.042.855-.057,1.251C1688.576,312.656,1688.977,314.459,1689.9,315.184Z" transform="translate(-1661.09 -299.38)" fill="#ffb27d"/>
      <path id="Path_182" data-name="Path 182" d="M1678.271,271.831a2.043,2.043,0,0,1,2.293-.714c1.5.46,1.65,1.74,4.208,1.535s3.172-1.415,3.633-.81.727,4.182.727,4.182,5.142-11.727-5.281-11.727c0,0-10.742-.649-5.579,11.272Z" transform="translate(-1650.565 -264.29)" fill="#2c3a64"/>
      <path id="Path_183" data-name="Path 183" d="M1520.4,430.671l.014.008C1520.4,430.685,1520.4,430.671,1520.4,430.671Z" transform="translate(-1511.632 -412.023)" fill="#ffb27d"/>
      <path id="Path_184" data-name="Path 184" d="M1569.614,634.234a5.865,5.865,0,0,1-3.359,1.074s-2.035-2.243-3.75-4.412a14.729,14.729,0,0,1-2.287-3.493c-.512-1.815-10.086-2.327-11.259-3.606s4.757-4.488,4.757-4.488,9.72,1.486,11.181,3.4a26.727,26.727,0,0,1,2.279,4.851C1568.434,630.748,1569.614,634.234,1569.614,634.234Z" transform="translate(-1536.854 -579.519)" fill="#e8945b"/>
      <path id="Path_185" data-name="Path 185" d="M1613.08,487.195s1.842-3.576,2.752-3.473-2.091,7.4-2.364,10.951S1613.08,487.195,1613.08,487.195Z" transform="translate(-1593.926 -459.126)" fill="#ed7d2b"/>
      <path id="Path_186" data-name="Path 186" d="M1504.228,625.644a53.94,53.94,0,0,1-3.145,6.271l-.023.038h-.03c-.31,0-2.979-.061-3.24-1.133,0,0-.086-3.708.061-6.654a15.59,15.59,0,0,1,.365-3.094s-14.474-.1-14.219-4.191,7.82-6.26,12.172-4.138c0,0,5.768,2.1,8.8,4.865C1506.465,618.969,1505.546,622.452,1504.228,625.644Z" transform="translate(-1479.308 -572.955)" fill="#ffb27d"/>
      <path id="Path_187" data-name="Path 187" d="M1475.64,605s-1.927,2.832-1.475,5.475,5.95,4.055,9.8,4.223c0,0,11-2.522,9.3-6.907C1492.872,606.793,1475.64,605,1475.64,605Z" transform="translate(-1470.519 -566.813)" fill="#2b478b"/>
      <g id="Group_179" data-name="Group 179" transform="translate(0 1.281)">
        <path id="Path_188" data-name="Path 188" d="M1451.294,277.819s-1.748-3.578-5.969-1.39-.112,10.429-2.327,12.489.8,3.408.353,4.886.835,3.157,3.789,2.959,6.065-.038,7.4-2.623,1.032-8.272.516-9.071S1451.294,277.819,1451.294,277.819Z" transform="translate(-1442.176 -275.72)" fill="#aa443e"/>
        <path id="Path_189" data-name="Path 189" d="M1527.7,398.205l-7.178-4.332a6.548,6.548,0,0,0,.722-1.785,8.669,8.669,0,0,0,.41-1.692c.006-.046.012-.089.016-.133a4.632,4.632,0,0,0,.02-1.043l1.572.568,2.908,1.053a3.6,3.6,0,0,0,.227,1.613,1.3,1.3,0,0,0,1.107.871Z" transform="translate(-1511.739 -376.499)" fill="#ffb27d"/>
        <path id="Path_190" data-name="Path 190" d="M1534.738,396.959a5.393,5.393,0,0,1-4.743-2.058c-.052-.068-.078-.105-.078-.105l.093-.028c.229-.068.849-.254,1.592-.475l2.908,1.053A3.6,3.6,0,0,0,1534.738,396.959Z" transform="translate(-1520.084 -381.003)" fill="#ed985f"/>
        <path id="Path_191" data-name="Path 191" d="M1522.362,328.857s-6.245.686-6.373-3.537-1.051-6.155,3.27-6.531,5.342,1.18,5.6,2.609C1525.649,325.861,1524.121,328.667,1522.362,328.857Z" transform="translate(-1507.566 -313.911)" fill="#ffb27d"/>
        <path id="Path_192" data-name="Path 192" d="M1497.677,291.745c-2.21-.559-1.365,3.356-1.923,3.088-.625-.3-1.7-.3-1.529.459a14.518,14.518,0,0,0,.541,1.495c.127.471,0,1.4-.515,1.216s-5.293-5.645-1.917-9.9,13.436-1.632,10.268,2.814C1502.043,291.7,1499.25,292.143,1497.677,291.745Z" transform="translate(-1485.65 -284.805)" fill="#aa443e"/>
        <path id="Path_193" data-name="Path 193" d="M1497.195,444.277a10.753,10.753,0,0,1-4.831.949,33.58,33.58,0,0,1-8.449-1.774c-1.464-.527-2.465-1.091-2.345-1.564.173-.682,1.428-5.916,2.586-10.76,1.06-4.429,2.039-8.531,2.039-8.531s2.925,2.078,4.629,1.345,1.486-1.563,1.486-1.563a20.769,20.769,0,0,1,2.553-.183,34.656,34.656,0,0,1,3.941,1.222,3.654,3.654,0,0,1-.667,2.905,3.849,3.849,0,0,1-1.749,1.751A36.061,36.061,0,0,1,1497.195,444.277Z" transform="translate(-1477.146 -405.771)" fill="#739af0"/>
        <path id="Path_194" data-name="Path 194" d="M1534.906,555.3a4.791,4.791,0,0,1,2.509.125c.706.462.913,1.185.406,1.48a3.287,3.287,0,0,1-3.206-.1Z" transform="translate(-1524.256 -523.864)" fill="#ffb27d"/>
        <path id="Path_195" data-name="Path 195" d="M1483.916,506.34c-1.464-.527-2.465-1.091-2.345-1.564.173-.682,1.428-5.916,2.586-10.76.342-.628.56-1,.56-1S1486.917,503.067,1483.916,506.34Z" transform="translate(-1477.147 -468.659)" fill="#4a82d3"/>
        <path id="Path_196" data-name="Path 196" d="M1461.567,430.887s-5.555,1.176-7.746,9.812a2.619,2.619,0,0,0,.592,2.394c1.008,1.116,3.228,2.749,8.393,3.35.564.065.639-1.365.639-1.365a37.051,37.051,0,0,1-4.977-3.491.811.811,0,0,1-.063-1,23.5,23.5,0,0,0,1.609-2.739C1460.423,436.869,1463.122,431.332,1461.567,430.887Z" transform="translate(-1452.446 -413.496)" fill="#ffb27d"/>
        <path id="Path_197" data-name="Path 197" d="M1475.953,425.847a8.921,8.921,0,0,0-5.93,3.783,6.463,6.463,0,0,0,5.132,4.138S1477.764,427.887,1475.953,425.847Z" transform="translate(-1466.904 -409.021)" fill="#739af0"/>
      </g>
      <path id="Path_198" data-name="Path 198" d="M1613.315,722.7a53.947,53.947,0,0,1-3.146,6.271l-.052.038c-.31,0-2.979-.061-3.24-1.133,0,0-.086-3.708.061-6.654C1607.366,721.63,1609,722.845,1613.315,722.7Z" transform="translate(-1588.397 -670.01)" fill="#ebf2f9"/>
      <path id="Path_199" data-name="Path 199" d="M1678.146,699.571a5.865,5.865,0,0,1-3.359,1.075s-2.035-2.243-3.75-4.412a18.753,18.753,0,0,0,4.671-3.34C1676.965,696.085,1678.146,699.571,1678.146,699.571Z" transform="translate(-1645.385 -644.856)" fill="#ebf2f9"/>
      <path id="Path_200" data-name="Path 200" d="M1604.278,783.411a.614.614,0,0,1-.73.487,28.319,28.319,0,0,1-2.845-.69c-.851-.31-2.482-1.273-3.332-1.582-.292-.107-1-.39-1.45-.575a.507.507,0,0,1-.3-.612,10.744,10.744,0,0,1,.858-2.14.779.779,0,0,1,.355-.315,3.3,3.3,0,0,0,2.068.747,4.523,4.523,0,0,0,1.865-.393c.058.118,1.217,2.458,2.039,2.757A2.034,2.034,0,0,1,1604.278,783.411Z" transform="translate(-1578.41 -720.41)" fill="#aa443e"/>
      <path id="Path_201" data-name="Path 201" d="M1707.693,738.371a.614.614,0,0,1-.271.834,28.293,28.293,0,0,1-2.661,1.22c-.859.284-2.739.538-3.6.822-.3.1-1.023.31-1.494.446a.507.507,0,0,1-.612-.3,10.748,10.748,0,0,1-.652-2.212.782.782,0,0,1,.084-.467,3.3,3.3,0,0,0,2.086-.694,4.524,4.524,0,0,0,1.221-1.463c.119.057,2.478,1.175,3.308.9A2.037,2.037,0,0,1,1707.693,738.371Z" transform="translate(-1669.682 -683.628)" fill="#aa443e"/>
      <path id="Path_202" data-name="Path 202" d="M1479.509,617.146a6.138,6.138,0,0,1-1.986,3.525s-6.374-.877-12.308-2.378c-4.362-1.1-8.488-2.543-9.667-4.22-2.787-3.956,1.458-8.771,1.458-8.771s8.183,3.948,17.042,8.787C1475.861,615.079,1477.7,616.107,1479.509,617.146Z" transform="translate(-1453.208 -567.082)" fill="#f99746"/>
      <path id="Path_203" data-name="Path 203" d="M1560.354,742.427a5.322,5.322,0,0,0-2.609.87c-.716.716-1.8,2.8-1.029,3.625s4.456-.984,4.559-1.281A20.621,20.621,0,0,0,1560.354,742.427Z" transform="translate(-1543.643 -688.838)" fill="#ffb27d"/>
      <path id="Path_204" data-name="Path 204" d="M1563.61,686.756a6.138,6.138,0,0,1-1.986,3.525s-6.374-.877-12.308-2.378a21.31,21.31,0,0,1,8.833-4.2C1559.961,684.689,1561.8,685.718,1563.61,686.756Z" transform="translate(-1537.308 -636.692)" fill="#ed7d2b"/>
      <path id="Path_205" data-name="Path 205" d="M1618.427,453.8c-1.274-3.027-9.654-3.142-9.654-3.142-4.263,11.188-5.288,18.525-6.416,23.241a2.4,2.4,0,0,0-.51,0s-5.989,2.337-14.891,8.8a5.129,5.129,0,0,0,.741,4.643s15.339-3.385,19.624-5.9h.007l.128-.082q.1-.061.187-.12C1621.574,472.193,1620.25,458.13,1618.427,453.8Z" transform="translate(-1570.5 -429.77)" fill="#f99746"/>
    </g>
    <g id="Group_182" data-name="Group 182" transform="translate(311.363 182.875)">
      <path id="Path_206" data-name="Path 206" d="M1527.072,957.647a5.9,5.9,0,0,1,3.7,6.44s-.4,2.01-1.635,1.119-.658-.727-2.426-1.948-2.921-3.142-2.721-4.668Z" transform="translate(-1479.191 -902.343)" fill="#ffb27d"/>
      <path id="Path_207" data-name="Path 207" d="M1343.287,693.867l-2.548,3.091a.51.51,0,0,1-.489.176c-2.388-.438-10.607-5.736-13.3-7.9a8.04,8.04,0,0,1-.666-.582,73.717,73.717,0,0,1-6.922-10.563c-1.414-2.588-2.5-4.993-2.581-6.341-.306-4.811,2.224-11.538,2.224-11.538,7.486,2.605,8.273,8.581,8.273,8.581l4.15,15.445,11.754,8.786a.585.585,0,0,1,.1.843Z" transform="translate(-1295.208 -638.245)" fill="#739af0"/>
      <path id="Path_208" data-name="Path 208" d="M1346.548,775.073a7.978,7.978,0,0,1-.666-.582,73.68,73.68,0,0,1-6.922-10.563c-.318-2.716-.1-5.264,1.019-7.044C1339.981,756.884,1346.344,768.081,1346.548,775.073Z" transform="translate(-1314.805 -724.081)" fill="#4a82d3"/>
      <path id="Path_209" data-name="Path 209" d="M1288.83,1295.661l-1.273,5.307-.787,3.285-2.622,10.933a8.794,8.794,0,0,1-4.577,0,39.883,39.883,0,0,1-.889-8.131,27.285,27.285,0,0,1,.893-7.425,17.05,17.05,0,0,1,1.093-2.9C1284.369,1289.171,1288.83,1295.661,1288.83,1295.661Z" transform="translate(-1261.399 -1200.17)" fill="#ffb27d"/>
      <path id="Path_210" data-name="Path 210" d="M1290.743,1483.81h-12.321a10.475,10.475,0,0,1,.348-3.648,6.3,6.3,0,0,1,.293-.783,12.484,12.484,0,0,0,5.123,0,20.534,20.534,0,0,0,3.578,2.482C1289.111,1482.443,1290.6,1482.127,1290.743,1483.81Z" transform="translate(-1261.138 -1365.6)" fill="#2b478b"/>
      <path id="Path_211" data-name="Path 211" d="M1287.56,1346.993l-.787,3.285a18.99,18.99,0,0,1-8.087,2.8,27.3,27.3,0,0,1,.893-7.425,5.452,5.452,0,0,1,3.269-.7A9.351,9.351,0,0,1,1287.56,1346.993Z" transform="translate(-1261.401 -1246.196)" fill="#e8945b"/>
      <path id="Path_212" data-name="Path 212" d="M1284.343,1490.02h-5.922a10.475,10.475,0,0,1,.348-3.648C1280.257,1486.834,1283.281,1488,1284.343,1490.02Z" transform="translate(-1261.138 -1371.808)" fill="#1f396d"/>
      <path id="Path_213" data-name="Path 213" d="M1201.2,1295.661l-1.273,5.307-.787,3.285-2.622,10.933a8.794,8.794,0,0,1-4.577,0,39.875,39.875,0,0,1-.889-8.131,27.286,27.286,0,0,1,.893-7.425,17.046,17.046,0,0,1,1.093-2.9C1196.736,1289.171,1201.2,1295.661,1201.2,1295.661Z" transform="translate(-1183.591 -1200.17)" fill="#ffb27d"/>
      <path id="Path_214" data-name="Path 214" d="M1191.427,1479.38a12.47,12.47,0,0,0,5.123,0,20.53,20.53,0,0,0,3.578,2.482c1.348.582,2.838.266,2.979,1.949h-12.321A9.829,9.829,0,0,1,1191.427,1479.38Z" transform="translate(-1183.326 -1365.6)" fill="#2b478b"/>
      <path id="Path_215" data-name="Path 215" d="M1199.93,1346.993l-.788,3.285a18.986,18.986,0,0,1-8.087,2.8,27.286,27.286,0,0,1,.893-7.425,5.451,5.451,0,0,1,3.269-.7A9.364,9.364,0,0,1,1199.93,1346.993Z" transform="translate(-1183.592 -1246.196)" fill="#e8945b"/>
      <path id="Path_216" data-name="Path 216" d="M1179.718,993.516a2.511,2.511,0,0,1-2.424,1.856h-19.756a2.552,2.552,0,0,1-2.545-2.748c.208-2.691.948-7.086,1.272-10.053a13.325,13.325,0,0,0,.118-2.735c-1.994-13.194-3.668-28.737-3.465-31.707.029-.418.049-.634.049-.634s1.439-.122,3.627-.206c6.362-.251,19.062-.208,21.172,3.953,2.15,4.238,3.448,32.379,3.448,32.379C1181.529,986.246,1180.418,990.923,1179.718,993.516Z" transform="translate(-1149.717 -893.068)" fill="#c65447"/>
      <path id="Path_217" data-name="Path 217" d="M1156.27,983.233a13.336,13.336,0,0,0,.118-2.735c-1.994-13.194-3.668-28.736-3.465-31.707.029-.418.049-.634.049-.634s1.439-.122,3.628-.206a18.659,18.659,0,0,1,5.433,5.242S1161.37,977.884,1156.27,983.233Z" transform="translate(-1149.721 -893.734)" fill="#b2443b"/>
      <path id="Path_218" data-name="Path 218" d="M1272.6,464.281c-1.578-.4-2.5.849-2.5,2.313a2.651,2.651,0,0,0,2.651,2.651c1.464,0,2.651-1.7,2.651-3.161S1274.016,464.636,1272.6,464.281Z" transform="translate(-1253.78 -464.207)" fill="#b2443b"/>
      <path id="Path_219" data-name="Path 219" d="M1254.232,495.123s-8.222-7.4-.779-12.646a10.63,10.63,0,0,1,3.35-.38s4.047-1.184,6.413,1.564,3.4,4.735,1.367,7.186S1254.232,495.123,1254.232,495.123Z" transform="translate(-1236.23 -479.866)" fill="#c65447"/>
      <path id="Path_220" data-name="Path 220" d="M1166.635,987.538a5.9,5.9,0,0,1-1.872,7.185s-1.691,1.156-1.951-.347.04-.98-.368-3.089.114-4.289,1.327-5.238Z" transform="translate(-1158.068 -927.562)" fill="#ffb27d"/>
      <path id="Path_221" data-name="Path 221" d="M1270.256,584.991s-.1,1.109-.289,2.607c-.091.732-.2,1.558-.335,2.392-.094.6-.2,1.2-.312,1.781l-2.546,8.6L1260.8,590.7s1.4-1.162,3.308-7.46c.018-.067.03-.1.03-.1Z" transform="translate(-1245.519 -569.803)" fill="#ffb27d"/>
      <path id="Path_222" data-name="Path 222" d="M1167.533,687.329c.078.966-.167,1.142-.167,1.142s-3.675,1.332-12.918.872q-1.5-.075-2.822-.152c-5.957-.351-9.142-.719-9.142-.719s-4.879-11.261,4.287-25.135a44.454,44.454,0,0,1,3.675-4.793c1.484-1.693,1.812-3.958,2.373-6.111.161-.617-.3-.753-.072-1.336,0,0,1.672-.473,1.844-.473a8.154,8.154,0,0,0,5.31,2.784,2.847,2.847,0,0,0,3.223-1.674,25.5,25.5,0,0,1,2.313,1.116,10.666,10.666,0,0,1,6.149,7.948s-5.176,17.019-5.5,19.144C1165.945,680.884,1167.131,682.354,1167.533,687.329Z" transform="translate(-1139.314 -629.729)" fill="#739af0"/>
      <path id="Path_223" data-name="Path 223" d="M1295.142,587.6c-.091.732-.4,2.736-.533,3.57-6.329-2.467-5.5-7.276-5.328-7.933.018-.067.03-.1.03-.1S1292.659,585.51,1295.142,587.6Z" transform="translate(-1270.694 -569.804)" fill="#e8945b"/>
      <g id="Group_181" data-name="Group 181" transform="translate(18.277 6.347)">
        <path id="Path_224" data-name="Path 224" d="M1295.085,533.137s-7.31.235-7.386-4.321-1.071-7.591,3.593-7.934,5.6,1.381,5.995,2.895S1296.986,532.959,1295.085,533.137Z" transform="translate(-1287.559 -520.838)" fill="#ffb27d"/>
      </g>
      <path id="Path_225" data-name="Path 225" d="M1286.167,508.773s-.459,7.6-9.371,6.788C1276.8,515.561,1276.986,505.03,1286.167,508.773Z" transform="translate(-1259.725 -503.064)" fill="#c65447"/>
      <path id="Path_226" data-name="Path 226" d="M1345.19,521.892a50.2,50.2,0,0,0,3.63,4.078S1351.6,521.983,1345.19,521.892Z" transform="translate(-1320.453 -515.427)" fill="#c65447"/>
      <path id="Path_227" data-name="Path 227" d="M1345.19,521.892a30.938,30.938,0,0,0,3.378,4.775S1351.6,521.983,1345.19,521.892Z" transform="translate(-1320.453 -515.427)" fill="#c65447"/>
      <path id="Path_228" data-name="Path 228" d="M1151.622,789.9c-5.957-.351-9.142-.718-9.142-.718s-4.879-11.261,4.287-25.135C1148.625,768.371,1153,779.931,1151.622,789.9Z" transform="translate(-1139.312 -730.44)" fill="#4a82d3"/>
      <path id="Path_229" data-name="Path 229" d="M1139.76,650.618s-7.072,1.451-10.222,5.1c-2.414,2.8-5.055,16.462-5.055,18.722,0,2.158,2.481,13.632,4.03,15.832a.512.512,0,0,0,.473.218l3.983-.422a.585.585,0,0,0,.517-.672l-2.238-14.5,7.855-13.931S1143.731,655.47,1139.76,650.618Z" transform="translate(-1124.483 -629.725)" fill="#739af0"/>
    </g>
    <g id="Group_183" data-name="Group 183" transform="translate(332.892 211.356)">
      <path id="Path_230" data-name="Path 230" d="M1496.551,1480.548a3.054,3.054,0,0,0,1.927,1.458,3.322,3.322,0,0,1,2,1.228.779.779,0,0,1-.626,1.241h-6.737a.969.969,0,0,1-.964-1.065c.05-.5.1-1.08.126-1.526a2.867,2.867,0,0,1,1.024-1.756Z" transform="translate(-1472.466 -1394.744)" fill="#2c3a64"/>
      <path id="Path_231" data-name="Path 231" d="M1437.148,1156.5c.281,5.123-.417,16.766-.417,16.766s-.469,1.3-3.436,1.608a8.882,8.882,0,0,1-3.02-.246q-.9-4.135-1.662-7.892c-3.662-17.967-5.09-29.065-5.09-29.065l14.456-3.36s-.634,10.144-.82,17.061C1437.1,1153.529,1437.087,1155.376,1437.148,1156.5Z" transform="translate(-1411.537 -1087.687)" fill="#35488b"/>
      <path id="Path_232" data-name="Path 232" d="M1437.978,1134.31s-.634,10.144-.82,17.061l-8.546,15.365c-3.662-17.967-5.09-29.065-5.09-29.065Z" transform="translate(-1411.537 -1087.687)" fill="#2c3a64"/>
      <path id="Path_233" data-name="Path 233" d="M1328.481,917.27s-5.594-2.546-9.826-.319-1.645,20.613,4.407,22.4h0S1334.4,942.972,1328.481,917.27Z" transform="translate(-1316.571 -893.879)" fill="#35488b"/>
      <path id="Path_234" data-name="Path 234" d="M1534.165,931.915a.657.657,0,0,0-.055-.071,9.365,9.365,0,0,1-.524-1.1h0c1.126-5.508.368-8.694.368-8.694.134-1.6,1.092-12.808-1.114-18-1.065-2.5-2.846-2.509-2.846-2.509a36.225,36.225,0,0,1,.142,6.152c-.253,1.974,1.629,20.476,1.94,23.5h-.01l.089,3.073.9-.213a.642.642,0,0,0,.113-.04h0a.644.644,0,0,0,.274-.241l.729-1.155a.65.65,0,0,0-.009-.705Zm-1.717-.5.038-.023-.019.025s-.01,0-.019,0Z" transform="translate(-1506.076 -881.007)" fill="#e8945b"/>
      <path id="Path_235" data-name="Path 235" d="M1391.9,1480.548a3.053,3.053,0,0,0,1.926,1.458,3.323,3.323,0,0,1,2,1.228.779.779,0,0,1-.626,1.241h-6.737a.969.969,0,0,1-.964-1.065c.05-.5.1-1.08.125-1.526a2.867,2.867,0,0,1,1.024-1.756Z" transform="translate(-1379.545 -1394.744)" fill="#2c3a64"/>
      <path id="Path_236" data-name="Path 236" d="M1404.3,718.326a6.64,6.64,0,0,0-4.222,1.564c-1.031,1-2.105,1.054-2.869,2.237a5.165,5.165,0,0,0-.89,4.252c.437,1.9.349,3.731,1.539,5.123.59.689,1.55.767,2.221,1.4a5.751,5.751,0,0,0,4.222,1.53c3.006,0,4.877-1.781,6.416-4,1.233-1.778.989-2.976,1.278-4.5C1412.9,721.148,1408.907,718.326,1404.3,718.326Z" transform="translate(-1387.253 -718.326)" fill="#35488b"/>
      <path id="Path_237" data-name="Path 237" d="M1451.77,827.342l-5.746,2.937-1.151-3.986a12.218,12.218,0,0,0,1.063-3.64,15.172,15.172,0,0,0,.119-3.281l4.682,2.4a8.874,8.874,0,0,0-.187,1.072,7.793,7.793,0,0,0,.082,2.5A3.468,3.468,0,0,0,1451.77,827.342Z" transform="translate(-1430.493 -808.046)" fill="#ffb27d"/>
      <path id="Path_238" data-name="Path 238" d="M1380.628,1145.278s-1.092,14.481-.849,37.56a8.894,8.894,0,0,0,2.907.852c2.968.3,3.691-.882,3.691-.882s3.035-11.264,3.794-16.339c.7-4.679,5.295-21.563,5.295-21.563Z" transform="translate(-1372.664 -1097.096)" fill="#35488b"/>
      <path id="Path_239" data-name="Path 239" d="M1365,882.576a18.41,18.41,0,0,0-4.528-1.285c.025.826-.191,1.6-1.641,1.794-1.929.251-3.653-1.065-4.526-1.96h0s-1.36.146-2.945.493a18.483,18.483,0,0,0-2.407.682,5.112,5.112,0,0,0-2.154,1.289h0c-1.484,1.821-3.925,7.306-3.925,7.306s4.064,1.506,5.089,2.386l.023.2.636,5.282-1.894,10.521a1.573,1.573,0,0,0-.026.274,1.552,1.552,0,0,0,1.187,1.506s.163.027.463.068c2.008.282,10.161,1.255,16.553-.481a3.1,3.1,0,0,0,2.265-3.249l-1.042-13.077c.556-.1,1.2-.2,1.72-.255a3.243,3.243,0,0,1,.928-.02S1368.052,883.836,1365,882.576Z" transform="translate(-1339.924 -862.878)" fill="#f99746"/>
      <path id="Path_240" data-name="Path 240" d="M1383.271,998.723c-.081,3.671-2.486,7.984-4.587,9.146-.3-.041-.463-.068-.463-.068a1.552,1.552,0,0,1-1.187-1.506,1.587,1.587,0,0,1,.025-.274l1.895-10.521-.636-5.282.047-.141A9.028,9.028,0,0,1,1383.271,998.723Z" transform="translate(-1370.258 -959.619)" fill="#ed7d2b"/>
      <path id="Path_241" data-name="Path 241" d="M1547.3,955.237c-.535.061-1.723.255-1.723.255l-.6-5.477A39.839,39.839,0,0,1,1547.3,955.237Z" transform="translate(-1519.372 -924.047)" fill="#ed7d2b"/>
      <path id="Path_242" data-name="Path 242" d="M1380.28,911.3l.492-2.733c8.333-12.055,8.963-14.218,5.216-19.631a7.987,7.987,0,0,0-3.821-2.739,18.467,18.467,0,0,1,2.407-.682,9.044,9.044,0,0,1,2.082,1.225C1398.09,896.647,1380.28,911.3,1380.28,911.3Z" transform="translate(-1373.14 -866.782)" fill="#35488b"/>
      <path id="Path_243" data-name="Path 243" d="M1350.953,971.039c-3.262.225-3.714,3.568-3.714,3.568a53.738,53.738,0,0,0-6.284.857s.444-1.2,1.234-3.018a15.442,15.442,0,0,0-4.613-2.226,14.983,14.983,0,0,0-.976,8.9.7.7,0,0,0,.65.537c1.743.081,7.5.052,11.715-3.438l.074-.02a2.977,2.977,0,0,0,2.32-2.38c.364-1.318.393-.915.672-1.843S1350.953,971.039,1350.953,971.039Z" transform="translate(-1334.084 -941.988)" fill="#ffb27d"/>
      <path id="Path_244" data-name="Path 244" d="M1459.054,851.343c-2.662-.071-4.7-2.693-4.7-2.693l4.614.188A7.789,7.789,0,0,0,1459.054,851.343Z" transform="translate(-1438.916 -834.043)" fill="#e8945b"/>
      <path id="Path_245" data-name="Path 245" d="M1450.884,777.322s-5.882.717-6.008-3.427,2.326-6.829,3.963-6.8c3.263.061,3.8,1.38,4.18,2.753S1453.592,777.029,1450.884,777.322Z" transform="translate(-1430.491 -761.629)" fill="#ffb27d"/>
      <path id="Path_246" data-name="Path 246" d="M1484.47,834.235s.128.517,1.417.421c0,0,1.082-.08,1.042-.649A3.482,3.482,0,0,0,1484.47,834.235Z" transform="translate(-1465.653 -820.933)" fill="#fff"/>
      <path id="Path_247" data-name="Path 247" d="M1439.944,765.53s-5.027,0-3.872,3.448c.728,2.175-1.693,2.513-1.693,2.513l-1.165-3.487.73-2.716Z" transform="translate(-1420.142 -760.025)" fill="#35488b"/>
    </g>
    <g id="Group_185" data-name="Group 185" transform="translate(382.026 175.363)">
      <path id="Path_248" data-name="Path 248" d="M1793.938,553.962c-1.253-2.08-2.03-11.366-2.934-13.853-.571-1.572-2.1-3.451-1.94-3.568-1.628-.96-6.032-1.421-6.032-1.421v.009l-.507-.1a1.216,1.216,0,0,1-1.086-.949c0-.026-.005-.054-.008-.081a16.827,16.827,0,0,1-.074-1.913.116.116,0,0,1,0-.024c.015-.953.087-1.66.087-1.66l-.018,0-5.71-.918c-.078,1.783-.182,3.11-.291,4.1a1.565,1.565,0,0,1-1.46,1.393c-.114.006-.229.013-.344.021h0a23.7,23.7,0,0,0-5.089.287,2.29,2.29,0,0,0-.358.148c.085.089-13.555,13.76-13.2,15.344s6.337,10.574,8.507,12.231h2.172s-4.814-10.979-4.877-11.87c-.091-1.3,12.105-8.6,12.105-9.925,0-.484,3.4-.63,5.624-.613a34.492,34.492,0,0,0,6.79-1.212s1.917,14.528,4.34,18.836c1.911,3.4,10.351,12.1,10.351,12.1l1.78-1.579S1796.972,559,1793.938,553.962Z" transform="translate(-1754.966 -514.649)" fill="#ffb27d"/>
      <path id="Path_249" data-name="Path 249" d="M1808.809,899.08c1.03,10.148-.218,23.435-.218,23.435h-3.5a82.373,82.373,0,0,1-5.739-25.87c-.164-1.782-2.57-8.907-4.731-15.76-1.8-5.721-3.436-11.255-3.447-13.328-.023-4.751,4.71-12.371,4.71-12.371a82.694,82.694,0,0,1,11,5.216,8.176,8.176,0,0,1,2.84,2.429c.974,1.908,1.694,15.53-.9,23.85-1.559,5.01-.761,7.579-.761,7.579A42.493,42.493,0,0,1,1808.809,899.08Z" transform="translate(-1787.12 -803.855)" fill="#c65447"/>
      <path id="Path_250" data-name="Path 250" d="M1808.829,886.682c-1.559,5.01-.761,7.579-.761,7.579a42.424,42.424,0,0,1,.739,4.818l-14.184-18.194c-1.8-5.721-3.436-11.255-3.447-13.328-.024-4.751,4.71-12.371,4.71-12.371a82.693,82.693,0,0,1,11,5.216,8.177,8.177,0,0,1,2.84,2.429C1810.7,864.74,1811.419,878.361,1808.829,886.682Z" transform="translate(-1787.118 -803.854)" fill="#b2443b"/>
      <path id="Path_251" data-name="Path 251" d="M1842.691,1455.91a12.4,12.4,0,0,1-.492,2.75,7.283,7.283,0,0,1-2.932,2.581c-1.408.528-5.435.254-5.748,1.718h14.193a10.032,10.032,0,0,0-.352-3.637c-.547-1.443-1.173-3.411-1.173-3.411Z" transform="translate(-1824.716 -1337.25)" fill="#2b478b"/>
      <path id="Path_252" data-name="Path 252" d="M2095.757,1446.849a29.43,29.43,0,0,1,1.978,3.029c.391.86,2.971,4.5,2.659,4.534s-7.195,0-7.195,0a8.315,8.315,0,0,1-.625-2.891c.078-1.173-.938-3.4-.743-4.672S2095.757,1446.849,2095.757,1446.849Z" transform="translate(-2054.053 -1328.702)" fill="#2b478b"/>
      <path id="Path_253" data-name="Path 253" d="M1926.334,916.9h-3.925s-15.309-22.131-15.835-27.758c-.658-7.037-5.575-34.811-5.575-34.811l15.7-4.889s1.372,3.53,2.523,7.089c.5,1.552.959,3.11,1.244,4.382.629,2.81-1.141,13.425-2.349,20.972a73,73,0,0,0-1.027,7.62C1917.184,892.317,1922.344,892.682,1926.334,916.9Z" transform="translate(-1884.63 -798.752)" fill="#c65447"/>
      <path id="Path_254" data-name="Path 254" d="M1939.189,543.218c-.009.142-.017.28-.027.414C1939.17,543.5,1939.179,543.36,1939.189,543.218Z" transform="translate(-1918.517 -526.851)" fill="#2b478b"/>
      <path id="Path_255" data-name="Path 255" d="M1939.5,537.99c-.008.152-.016.3-.025.444C1939.489,538.289,1939.495,538.142,1939.5,537.99Z" transform="translate(-1918.799 -522.208)" fill="#2b478b"/>
      <path id="Path_256" data-name="Path 256" d="M1939.995,529.474q-.007.167-.015.329.007-.161.014-.329Z" transform="translate(-1919.244 -514.647)" fill="#2b478b"/>
      <path id="Path_257" data-name="Path 257" d="M1854.161,616.145c.511,1.539-6.877,2.438-15.078,2.329a26.783,26.783,0,0,1-6.246-.773c-3.754-.971-5.819-2.737-4.171-4.61.469-.532,5.667-7.972,5.667-7.972.307-.666-.026-2.848-1.613-8.033a5.649,5.649,0,0,1,.5-4.281,0,0,0,0,1,0,0,.849.849,0,0,0,.032-.718,17.661,17.661,0,0,0-2.663-3.353,26.33,26.33,0,0,0-2.227-2.029s3.043-3.317,4.745-4.169c1.753,1.838,5.555,5.13,10.33,5.168,4.119.03,8.122-2.289,10.559-4.05a1.694,1.694,0,0,1,.434.342,11.536,11.536,0,0,1,1.957,5.009s-4.9,2.7-4.812,3.584a23.705,23.705,0,0,1,.365,4v.009a5.9,5.9,0,0,1-.253,1.055c-.836,2.625-2.645,6.678-2.193,8.043C1849.609,606.047,1853.425,613.936,1854.161,616.145Z" transform="translate(-1819.897 -561.759)" fill="#2b478b"/>
      <path id="Path_258" data-name="Path 258" d="M1876.027,580.676c.079-.024.165-.047.257-.067-.091.021-.179.044-.258.068Z" transform="translate(-1862.457 -560.051)" fill="#ffb27d"/>
      <path id="Path_259" data-name="Path 259" d="M1993.51,575.322a1.353,1.353,0,0,0,.439.291A1.348,1.348,0,0,1,1993.51,575.322Z" transform="translate(-1966.773 -555.357)" fill="#ffb27d"/>
      <path id="Path_260" data-name="Path 260" d="M1997.42,577.915a1.984,1.984,0,0,0,.189.068A1.617,1.617,0,0,1,1997.42,577.915Z" transform="translate(-1970.247 -557.659)" fill="#ffb27d"/>
      <path id="Path_261" data-name="Path 261" d="M2157.872,879.81a16.632,16.632,0,0,1,3.412,1.2c.411.419,1.587,3.673,1.173,3.7a4.3,4.3,0,0,1-3.284-1c-1.3-1.43-3.242-1.659-3.146-2.706S2157.872,879.81,2157.872,879.81Z" transform="translate(-2111.073 -825.718)" fill="#ffb27d"/>
      <path id="Path_262" data-name="Path 262" d="M1813.712,828.564s-2.173,2.745-2.173,3.243.44,2.58.968,2.61.7-1.7,1.114-2.023,1.877-.929,2.082-1.491a11,11,0,0,0,.181-2.339Z" transform="translate(-1805.199 -780.216)" fill="#ffb27d"/>
      <path id="Path_263" data-name="Path 263" d="M1937.69,532.984c2.7-.347,5.981-3.005,5.981-3.005a6.482,6.482,0,0,0-4.871-.783,4.848,4.848,0,0,0-.861.326Z" transform="translate(-1917.211 -514.234)" fill="#e8945b"/>
      <g id="Group_184" data-name="Group 184" transform="translate(18.715 5.154)">
        <path id="Path_264" data-name="Path 264" d="M1922.727,454.151s6.671,2.226,7.994-1.95,3.073-6.7-1.129-8.3-5.54-.268-6.321,1.018S1921.026,453.464,1922.727,454.151Z" transform="translate(-1921.939 -443.17)" fill="#ffb27d"/>
        <path id="Path_265" data-name="Path 265" d="M1931.226,518.427s-.246.484-1.505.094c0,0-1.058-.328-.887-.885A3.555,3.555,0,0,1,1931.226,518.427Z" transform="translate(-1928.044 -509.283)" fill="#fff"/>
      </g>
      <path id="Path_266" data-name="Path 266" d="M1945.958,403.513c-.747-.96,1.706-2.94-3.277-5.319-3.78-1.805-4.951.929-5.3,2.355-2.248-1.283-5.916-4.978-8.256-2.571-2.8,2.882.237,5.419.237,5.419,1.063.774,1.579.56,3.132.9s.561,2.139.683,2.745a1.944,1.944,0,0,0,2.617,1.213c1.437-.619,1.271,1.748-.094,2.234-.389.139-.793,2.314-.229,2.406.474.077,2.187.093,2.36-1.3.1-.829,1.156-1.262,2.274-2.119a3.494,3.494,0,0,0,2.459,1.024c.882-.127.892-.835,2.783-2.1S1946.7,404.473,1945.958,403.513Z" transform="translate(-1908.553 -397.182)" fill="#c65447"/>
      <path id="Path_267" data-name="Path 267" d="M1832.834,796.648c-3.753-.971-5.819-2.739-4.171-4.611.469-.532,5.667-7.972,5.667-7.972S1835.722,792.467,1832.834,796.648Z" transform="translate(-1819.894 -740.705)" fill="#233862"/>
    </g>
    <g id="Group_187" data-name="Group 187" transform="translate(408.996 178.096)">
      <g id="Group_186" data-name="Group 186" transform="translate(1.209 58.463)">
        <path id="Path_268" data-name="Path 268" d="M2015.475,1007.716l-.562-60.186s-.487-4.335-4.267-4.335c-4.035,0-4.267,4.335-4.267,4.335a.459.459,0,0,0,.472.375.488.488,0,0,0,.505-.375s.179-3.342,3.29-3.342c2.915,0,3.29,3.342,3.29,3.342v60.186Z" transform="translate(-2006.38 -943.195)" fill="#233862"/>
        <path id="Path_269" data-name="Path 269" d="M2069.17,1494.862h2.51l-.224-2.624s.021-.365-.487-.385c-.471-.019-1.4-.086-1.491.2C2069.4,1492.3,2069.17,1494.862,2069.17,1494.862Z" transform="translate(-2062.133 -1430.341)" fill="#233862"/>
      </g>
      <path id="Path_270" data-name="Path 270" d="M2001.045,914.737l-.172.861a5.515,5.515,0,0,0-5.25,4.544s-.27,1.9,1.1,1.491,1.156-1.373,3.092-1.9,3.2-.937,3.493-2.347l.317-1.569Z" transform="translate(-1995.602 -859.463)" fill="#ffb27d"/>
      <path id="Path_271" data-name="Path 271" d="M2056.734,581.784s-1.126,4.429-2.1,8.478c-.391,1.631-.756,3.2-1.014,4.392a10.114,10.114,0,0,0-.355,2.148c.844,1.369-.7,9.725-1.917,12.759-.107.269-.256.584-.434.934-1.705,3.344-6.247,9.907-6.247,9.907a5.672,5.672,0,0,1-2.119-.183,2.788,2.788,0,0,1-1.177-1.12c.406-.654,2.049-8.375,4.164-12.7.9-1.852,2.237-19.035,3.989-21.349C2050.989,583.117,2056.734,581.784,2056.734,581.784Z" transform="translate(-2036.244 -563.827)" fill="#f99746"/>
      <path id="Path_272" data-name="Path 272" d="M2124.73,686.208c.844,1.369-.7,9.725-1.917,12.759-.107.269-.256.584-.434.934-1.63-7.212,1.072-17.426,1.072-17.426C2124.124,682.743,2124.672,686.117,2124.73,686.208Z" transform="translate(-2107.704 -653.234)" fill="#ed7d2b"/>
      <path id="Path_273" data-name="Path 273" d="M2134.833,1444.472s.433,6.526-.8,6.617c-.164.012-6.251.012-6.251.012h-7.851a2.683,2.683,0,0,1,2.4-2.313c2.272-.4,6.073-1.992,7.449-4.994C2131.23,1440.638,2134.833,1444.472,2134.833,1444.472Z" transform="translate(-2105.997 -1328.118)" fill="#0f2949"/>
      <path id="Path_274" data-name="Path 274" d="M2240.193,1444.472s.433,6.526-.8,6.617c-.164.012-6.251.012-6.251.012h-7.851a2.684,2.684,0,0,1,2.4-2.313c2.272-.4,6.073-1.992,7.448-4.994C2236.594,1440.638,2240.193,1444.472,2240.193,1444.472Z" transform="translate(-2199.549 -1328.118)" fill="#163560"/>
      <path id="Path_275" data-name="Path 275" d="M2149.542,931.7a85.324,85.324,0,0,1,.447,9.507c-.2,4.473-.338,8.245-.338,8.245-2.949,1-8.36-.213-8.36-.213s-1.919-11.3-3.5-20.327c-.709-4.043-1.3-7.54-1.518-9.192-.711-5.338.757-33.721.757-33.721s7.979-5.114,11.276-2.477,5.325,5.213.013,34.093C2147.917,919.808,2149.11,925.523,2149.542,931.7Z" transform="translate(-2120.334 -831.079)" fill="#2b478b"/>
      <path id="Path_276" data-name="Path 276" d="M2149.54,931.7a102.342,102.342,0,0,1,.409,10.375c-2.774-2.935-8.241-9.129-12.16-13.163-.709-4.043-1.3-7.54-1.518-9.192-.711-5.338.757-33.721.757-33.721s7.979-5.114,11.276-2.477,5.325,5.213.013,34.093C2147.915,919.808,2149.108,925.523,2149.54,931.7Z" transform="translate(-2120.332 -831.078)" fill="#233862"/>
      <path id="Path_277" data-name="Path 277" d="M2208.91,885.75s.717,28.412,1.836,33.68,6.964,29.383,6.964,29.383,5.477.5,8.341-.727c0,0-.183-11.168-1.154-17.73-.907-6.13-2.535-11.734-2.3-13.95,3.077-29.2.855-31.616-2.634-33.992S2208.91,885.75,2208.91,885.75Z" transform="translate(-2185.001 -830.249)" fill="#2b478b"/>
      <path id="Path_278" data-name="Path 278" d="M2301.612,927.929a5.515,5.515,0,0,0,1.75,6.719s1.583,1.082,1.826-.324-.037-.916.344-2.888-.106-4.011-1.241-4.9Z" transform="translate(-2266.876 -869.941)" fill="#ffb27d"/>
      <path id="Path_279" data-name="Path 279" d="M2162.78,503.421s2.191,3.33,1.754,6.437l3.241,7.811,5.848-8.941a20.529,20.529,0,0,1-4.243-7.948Z" transform="translate(-2144.042 -491.902)" fill="#ffb27d"/>
      <path id="Path_280" data-name="Path 280" d="M2132.593,447.67s7.978.345,8.123-4.443,2.3-7.975-3.666-8.4c-4.907-.346-6.538,1.7-6.975,3.286S2129.635,447.413,2132.593,447.67Z" transform="translate(-2114.816 -433.31)" fill="#ffb27d"/>
      <path id="Path_281" data-name="Path 281" d="M2127.912,611.7c-1.714.159-4.073.357-6.938.537q-.857.054-1.774.105c-8.644.484-12.08-.916-12.08-.916s-.229-.185-.156-1.2c.375-5.228,1.486-6.772,1.352-7.765-.3-2.233-5.718-20.454-5.718-20.454s-.1-5.756,6.3-8.457a15.191,15.191,0,0,1,2.191-.728,2.641,2.641,0,0,0,3.015,1.76,10.275,10.275,0,0,0,5.862-2.931c.161,0,.224.005.224.005a17.543,17.543,0,0,1,.536,1.9c.525,2.262.832,4.642,2.221,6.421a48.689,48.689,0,0,1,3.543,5.184,43.146,43.146,0,0,1,2.158,4.143C2134.311,601.827,2129.929,611.509,2127.912,611.7Z" transform="translate(-2090.605 -554.828)" fill="#f99746"/>
      <path id="Path_282" data-name="Path 282" d="M2272.848,714.7c-1.714.159-4.073.357-6.938.537-.835-14.07,4.9-27.585,4.9-27.585a5.077,5.077,0,0,1,.614.509,8.907,8.907,0,0,1,2.158,4.143C2275.288,698.681,2273.858,709.047,2272.848,714.7Z" transform="translate(-2235.54 -657.828)" fill="#ed7d2b"/>
      <path id="Path_283" data-name="Path 283" d="M2127.662,506.147s-1.552,6.161,1.083,7.029,9.632.172,9.629-7.381c0,0-3.671,2.191-5.426,2.134s-2.886-1.067-4.507-.277C2128.441,507.653,2127.847,507.613,2127.662,506.147Z" transform="translate(-2112.456 -496.355)" fill="#c8d9e8"/>
      <path id="Path_284" data-name="Path 284" d="M2245.331,571.69s5.576.125,8.523,3.959c2.258,2.937,4.644,18.7,4.644,21.072s-2.542,15.471-3.965,16.894a5.367,5.367,0,0,1-2.15,0,4.348,4.348,0,0,1-2.073-1.007s.708-14.582.708-15.95c0-1.98-6.191-14.1-6.191-14.1S2241.615,576.788,2245.331,571.69Z" transform="translate(-2215.749 -554.864)" fill="#f99746"/>
      <path id="Path_285" data-name="Path 285" d="M2155.9,424.578a1.382,1.382,0,0,0-.736-.746,8.53,8.53,0,0,0-7.775.184c2.754-3.7,9.4-2.921,10.8.414,2.286,5.444-1.9,6.578-1.9,6.578s-4.175-1.754-1.757-3.954a3.934,3.934,0,0,0,1.316-1.94h0A1.92,1.92,0,0,0,2155.9,424.578Z" transform="translate(-2130.374 -421.568)" fill="#c8d9e8"/>
      <path id="Path_286" data-name="Path 286" d="M2139.986,531.847s-.146.523-1.458.386c0,0-1.1-.115-1.043-.694A3.555,3.555,0,0,1,2139.986,531.847Z" transform="translate(-2121.58 -519.124)" fill="#fff"/>
    </g>
    <path id="Path_287" data-name="Path 287" d="M.26,0H182.74c.144,0,.26.162.26.361h0c0,.2-.117.361-.26.361H.26C.117.723,0,.561,0,.362H0C0,.162.117,0,.26,0Z" transform="translate(290.054 301.123)" fill="#2e3552"/>
  </g>
</svg>
